<?xml version="1.0" encoding="UTF-8"?>
<svg id="Layer_1" data-name="Layer 1" xmlns="http://www.w3.org/2000/svg" viewBox="0 0 1920 1080">
  <defs>
    <style>
      .cls-1 {
        font-family: MarkerFelt-Wide, 'Marker Felt';
      }

      .cls-2 {
        font-family: HanleyPro-SansLine, 'HanleyPro SansLine';
        font-size: 84.42px;
      }

      .cls-2, .cls-3 {
        fill: #000;
      }

      .cls-4 {
        fill: #010101;
      }

      .cls-4, .cls-5, .cls-3, .cls-6, .cls-7, .cls-8, .cls-9, .cls-10, .cls-11 {
        stroke-width: 0px;
      }

      .cls-12 {
        fill: #b27f2c;
        stroke-width: 11.7px;
      }

      .cls-12, .cls-13, .cls-14, .cls-15 {
        stroke-miterlimit: 10;
      }

      .cls-12, .cls-14, .cls-16, .cls-15 {
        stroke: #010101;
      }

      .cls-5, .cls-13, .cls-16, .cls-17 {
        fill: none;
      }

      .cls-13 {
        stroke: #fff;
        stroke-width: .97px;
      }

      .cls-14 {
        stroke-width: 13.58px;
      }

      .cls-14, .cls-9, .cls-15 {
        fill: #fff;
      }

      .cls-18 {
        fill: #c5aa2e;
        font-size: 64.03px;
      }

      .cls-16 {
        stroke-width: 75.86px;
      }

      .cls-16, .cls-17 {
        stroke-linecap: round;
        stroke-linejoin: round;
      }

      .cls-17 {
        stroke: #b07f2c;
        stroke-width: 55.56px;
      }

      .cls-19 {
        letter-spacing: -.06em;
      }

      .cls-20 {
        letter-spacing: -.06em;
      }

      .cls-6 {
        fill: #303030;
      }

      .cls-7 {
        fill: #b0802d;
      }

      .cls-21 {
        letter-spacing: -.04em;
      }

      .cls-8 {
        fill: #3c415e;
      }

      .cls-22 {
        font-family: Aventura, Aventura;
      }

      .cls-10 {
        fill: #fee000;
      }

      .cls-15 {
        stroke-width: 12.09px;
      }

      .cls-11 {
        fill: #f8cb19;
      }
    </style>
  </defs>
  <rect class="cls-10" width="1920" height="1080"/>
  <g>
    <g>
      <g id="L_Arm_Up" data-name="L Arm Up">
        <path class="cls-12" d="M879.73,386.88c4.72,8.43,25.49,48.3,34.22,57.05,8.74,8.75,36.21,46.91,58.71,39.93,0,0,54.39-28.39,62.94-90.79,8.55-62.4-31.09-68.85-31.09-68.85-22.17,0-35.05,31.25-35.05,31.25-12,1.93-27.88,17.57-27.88,17.57l-13.97-16.74-47.89,30.57Z"/>
        <path class="cls-4" d="M931.26,350.14l-8.2,4.4c2.5,5.58,5.64,11.83,9.49,18.37,1.46,2.47,2.96,4.86,4.53,7.16.41.58.81,1.15,1.21,1.71.44.57.87,1.14,1.3,1.71.46.57,1.04,1.24,1.49,1.73.42.44.83.87,1.24,1.3,3.28,3.48,6.31,6.67,8.91,9.26,2.61,2.6,4.8,4.63,6.43,5.92.81.65,1.48,1.11,2,1.37.53.28.86.25,1.24.3.18,0,.37-.08.5-.35.12-.22.19-.55.21-.91.04-.72-.12-1.64-.45-2.72-.66-2.16-1.99-4.98-3.89-8.25-1.91-3.28-4.35-7-7.37-11.01-.39-.5-.78-1.01-1.18-1.53-.35-.47-.56-.79-.88-1.24-.31-.48-.63-.97-.95-1.46-.32-.52-.65-1.05-.98-1.58-1.33-2.22-2.7-4.52-4.1-6.88-3.72-6.32-7.32-12.28-10.55-17.29Z"/>
        <path class="cls-4" d="M946.32,375.06s12.2-1.07,19.33,2.94-15.88,2.43-13.83,4.97-7.72-2.89-7.72-2.89l2.22-5.02Z"/>
      </g>
      <g id="Shirt">
        <path id="Shirt_Outline_Color" data-name="Shirt Outline + Color" class="cls-15" d="M1011.28,318.9s-41.81,136.53-38.42,207.63c0,0,100.62,51.95,231.36,7.94,0,0-.28-90.76-23.35-190.5,0,0-34.5-69.02-169.58-25.07Z"/>
        <path id="Fold" class="cls-4" d="M1179.98,398.91c-.58.14-1.18-.03-1.73-.17-2.3-.6-4.57-1.45-6.58-2.74-.9-.57-1.7-1.28-2.53-1.95-.42-.42-.96-.77-1.42-1.15s-.92-.76-1.41-1.1c-1.03-.72-2.26-1.51-3.56-1.49-.48,0-.94.15-1.32.43-.77.56-.75,1.65-.63,2.5.29,2.03,1.29,3.98,2.23,5.77,6.74,12.76,20.71,13.58,18.79,18.72-1.92,5.14-10.99,2.23-10.49,5.83.5,3.61,11.02,0,13.06,6.47,2.02,6.4,10.36,8.55,10.36,8.55l-5.03-17.1-3.25-23.89s-2.54.34-6.48,1.33Z"/>
      </g>
    </g>
    <g>
      <path class="cls-3" d="M909.73,426.02c0,1.11-.1,2.33-.28,3.62-.19,1.31-.84,2.51-1.95,3.62-5.95,5.95-15.24,13.47-27.86,22.57-12.63,9.11-27.03,18.11-43.19,27.03-16.16,8.92-33.53,16.53-52.1,22.85-18.58,6.32-36.59,9.66-54.05,10.03-20.81,26.75-43.19,53.41-67.15,79.96-23.96,26.56-48.67,52.2-74.11,76.9-25.45,24.71-50.9,47.74-76.34,69.1-25.45,21.37-50.15,39.84-74.11,55.45-23.96,15.6-46.53,27.95-67.7,37.06-21.17,9.1-40.12,13.65-56.84,13.65-11.15,0-22.2-1.31-33.16-3.9-10.96-2.6-20.71-6.69-29.25-12.26-8.55-5.57-15.52-12.54-20.9-20.9-5.39-8.36-8.08-18.48-8.08-30.37,0-18.57,5.48-37.8,16.44-57.67,10.95-19.87,24.61-39.93,40.96-60.18,16.34-20.24,33.99-40.4,52.94-60.46,18.95-20.06,36.59-39.56,52.94-58.51,16.34-18.95,30-37.33,40.96-55.17,10.95-17.83,16.44-34.55,16.44-50.15,0-4.08-2.23-6.13-6.69-6.13-5.57,0-14.68,3.16-27.3,9.47-12.63,6.32-28.05,14.31-46.25,23.96-18.21,9.66-38.54,20.06-61.02,31.21-22.48,11.14-46.25,21.55-71.33,31.21-25.08,9.67-51.07,17.65-78.01,23.96-26.93,6.32-53.77,9.47-80.52,9.47-34.92,0-70.95-5.75-108.1-17.27-37.14-11.51-76.53-31.21-118.13-59.07-8.17-5.57-14.67-11.61-19.5-18.11-4.82-6.5-7.24-12.35-7.24-17.55,0-2.59.93-5.38,2.79-8.36,2.23-2.97,6.88-6.5,13.93-10.59,7.06-4.08,15.32-8.26,24.8-12.54,9.47-4.27,19.5-8.54,30.09-12.82,10.59-4.27,20.81-8.26,30.65-11.98,9.85-3.71,18.58-7.05,26.19-10.03,7.62-2.97,13.09-5.2,16.44-6.69,6.69-1.86,13.37-2.79,20.06-2.79,9.66,0,18.58,2.79,26.75,8.36,23.04,15.24,44.67,28.14,64.92,38.73,20.25,10.59,40.03,19.14,59.35,25.63,19.32,6.5,38.36,11.24,57.12,14.21,18.76,2.98,38.35,4.46,58.79,4.46,18.95,0,36.68-2.23,53.22-6.69,16.53-4.46,32.5-10.12,47.92-17,15.41-6.87,30.73-14.21,45.97-22.01,15.23-7.8,31.11-15.13,47.64-22.01,16.53-6.87,33.9-12.54,52.1-17,18.2-4.46,37.89-6.69,59.07-6.69,14.11,0,24.05,2.98,29.81,8.92,5.75,5.95,8.64,13.75,8.64,23.4s-2.14,20.06-6.41,32.32c-4.28,12.26-9.67,24.89-16.16,37.89-6.5,13.01-13.47,26.19-20.9,39.56-7.44,13.37-14.4,26.01-20.9,37.89-6.5,11.89-11.89,22.48-16.16,31.76-4.27,9.29-6.41,16.54-6.41,21.73,0,7.06,1.58,11.89,4.74,14.49,3.15,2.6,7.33,3.9,12.54,3.9,16.34,0,32.32-3.99,47.92-11.98,15.6-7.98,30.27-18.11,44.02-30.37,13.74-12.26,26.37-25.82,37.89-40.68,11.51-14.85,21.54-29.16,30.09-42.91,0-.74-.75-1.85-2.23-3.34-.75-.74-1.49-1.3-2.23-1.67-12.26-7.43-21.09-16.72-26.47-27.86-5.39-11.14-8.08-23.21-8.08-36.22,0-18.95,4.82-38.73,14.49-59.35,9.66-20.62,22.1-39.56,37.33-56.84,15.23-17.27,32.13-31.57,50.71-42.91,18.57-11.33,36.78-17,54.61-17,15.6,0,26.93,3.54,33.99,10.59,7.05,7.06,10.59,16.91,10.59,29.53,0,20.06-7.52,45.23-22.57,75.51-15.04,30.28-35.2,63.25-60.46,98.91,2.23.38,4.46.56,6.69.56h6.69c9.28,0,19.13-1.2,29.53-3.62,10.4-2.41,20.62-5.75,30.65-10.03,10.03-4.27,19.78-9.19,29.25-14.77,9.47-5.57,18.29-11.7,26.47-18.39.74-.74,1.85-1.48,3.34-2.23.74-.74,1.76-1.39,3.06-1.95,1.3-.56,2.32-.84,3.07-.84,3.71.75,5.57,3.54,5.57,8.36Z"/>
      <path class="cls-3" d="M1063.47,490.66c0,15.6-6.13,34.55-18.39,56.84-12.26,22.29-28.61,45.69-49.04,70.21-20.43,24.52-43.93,48.85-70.49,73-26.57,24.15-54.15,45.89-82.75,65.2-28.61,19.32-57.12,35.02-85.54,47.09-28.42,12.07-54.89,18.11-79.41,18.11-26.38,0-45.51-5.57-57.4-16.72-11.89-11.14-17.83-25.44-17.83-42.91,0-14.11,3.43-29.72,10.31-46.81,6.87-17.08,16.53-34.17,28.98-51.27,12.44-17.08,27.03-33.71,43.74-49.87,16.72-16.16,35.01-30.46,54.89-42.91,19.87-12.44,40.77-22.47,62.69-30.09,21.92-7.61,44.21-11.42,66.87-11.42,5.2,0,10.12,1.31,14.77,3.9,4.64,2.6,6.97,5.39,6.97,8.36,0,3.34-3.72,5.57-11.15,6.69-13.75,2.23-26.84,8.18-39.29,17.83-12.45,9.67-23.4,21.17-32.88,34.55-9.47,13.37-17,27.5-22.57,42.35-5.57,14.86-8.36,28.24-8.36,40.12,0,10.78,2.59,19.6,7.8,26.47,5.2,6.88,13.56,10.31,25.08,10.31,13.74,0,27.58-3.34,41.51-10.03,13.93-6.69,26.47-14.39,37.61-23.12,11.14-8.72,20.24-17.36,27.3-25.91,7.05-8.54,10.59-14.85,10.59-18.95-5.95,1.49-11.7,2.23-17.27,2.23-10.03,0-17.37-2.97-22.01-8.92-4.65-5.94-6.96-13.74-6.96-23.4,0-13.37,3.9-29.16,11.7-47.37,7.8-18.2,18.01-35.47,30.65-51.82,12.62-16.34,27.03-30.18,43.19-41.51,16.16-11.33,32.6-17,49.32-17s28.79,3.26,36.22,9.75c7.43,6.5,11.14,15.52,11.14,27.03Z"/>
      <path class="cls-3" d="M1380.14,400.94c0,5.95-1.86,10.78-5.57,14.49-7.8,11.52-15.79,22.48-23.96,32.88-8.18,10.4-15.6,19.69-22.29,27.86-6.69,8.18-12.08,15.14-16.16,20.9-4.09,5.76-6.13,9.94-6.13,12.54,0,1.86,1.48,2.79,4.46,2.79,11.88-.74,22.19-1.85,30.93-3.34,8.72-1.48,14.02-2.23,15.88-2.23,1.48,0,2.23.56,2.23,1.67s-.75,2.6-2.23,4.46c-2.98,5.95-6.69,11.98-11.14,18.11-4.46,6.13-7.99,9.57-10.59,10.31-4.83,1.11-10.96,2.33-18.39,3.62-7.44,1.31-15.14,2.6-23.12,3.9-7.99,1.31-15.52,2.79-22.57,4.46-7.06,1.67-12.82,3.26-17.27,4.74-1.11,0-4.65,3.07-10.59,9.19-5.95,6.13-13.09,14.03-21.45,23.68-8.36,9.66-17.37,20.71-27.03,33.16-9.67,12.45-18.58,24.8-26.75,37.06-8.18,12.26-14.96,24.06-20.34,35.38-5.39,11.34-8.08,20.9-8.08,28.7,0,5.57,1.76,10.03,5.29,13.37,3.53,3.34,9.19,5.01,17,5.01,5.57,0,11.79-1.48,18.67-4.46,6.87-2.97,14.02-6.87,21.45-11.7,7.43-4.82,14.67-10.49,21.73-17,7.05-6.5,13.74-13.09,20.06-19.78.37-.37.92-.74,1.67-1.11.74-.37,1.39-.74,1.95-1.11.56-.37,1.2-.56,1.95-.56,2.23,0,4.08.93,5.57,2.79,1.48,1.86,2.23,3.72,2.23,5.57,0,2.23-.56,3.9-1.67,5.02-7.8,11.89-18.76,23.5-32.88,34.83-14.12,11.34-30,22.01-47.64,32.04-17.65,10.03-36.59,19.42-56.84,28.14-20.25,8.72-40.31,16.25-60.18,22.57-19.88,6.31-39.1,11.23-57.67,14.77-18.58,3.53-35.11,5.29-49.59,5.29-16.35,0-29.34-2.42-39.01-7.24-9.66-4.83-14.49-12.63-14.49-23.4,0-11.89,4.65-26.09,13.93-42.63,9.29-16.53,20.9-33.62,34.83-51.27,13.93-17.64,28.98-35.11,45.14-52.38s31.21-32.6,45.14-45.97c13.93-13.37,25.54-23.96,34.83-31.76,9.28-7.8,13.93-11.33,13.93-10.59,0-.74-.28-1.3-.84-1.67-.56-.37-1.95-.56-4.18-.56s-6.88.84-13.93,2.51c-7.06,1.67-14.68,3.44-22.85,5.29-8.18,1.86-15.98,3.62-23.4,5.29-7.44,1.67-12.63,2.51-15.6,2.51-6.69,0-10.03-2.23-10.03-6.69,0-1.48.74-2.97,2.23-4.46,1.85-2.23,4.82-5.1,8.92-8.64,4.08-3.53,8.54-6.96,13.37-10.31,4.82-3.34,9.38-6.22,13.65-8.64,4.27-2.41,7.52-3.81,9.75-4.18,2.23-.37,7.33-1.11,15.32-2.23,7.98-1.12,16.53-2.41,25.63-3.9,9.1-1.48,17.64-2.79,25.63-3.9,7.98-1.11,12.9-1.67,14.77-1.67,25.63-27.86,49.68-54.42,72.16-79.68,22.47-25.26,41.14-46.25,56-62.97,2.59-2.59,5.57-5.01,8.92-7.24,2.97-1.85,6.41-3.62,10.31-5.29,3.9-1.67,8.45-2.51,13.65-2.51,3.71,0,10.77.47,21.17,1.39,10.4.93,21.08,2.51,32.04,4.74,10.95,2.23,20.71,5.02,29.25,8.36,8.54,3.34,12.82,7.24,12.82,11.7Z"/>
      <path class="cls-3" d="M1543.97,572.57c0,11.15-4.37,23.5-13.1,37.06-8.73,13.57-21.17,27.03-37.33,40.4-16.16,13.37-35.76,26.1-58.79,38.17-23.04,12.08-48.85,22.2-77.46,30.37,3.34,7.8,9.38,14.03,18.11,18.67,8.72,4.65,21.26,6.97,37.61,6.97s32.96-4.64,50.99-13.93c18.01-9.28,34.83-22.66,50.43-40.12.37-.37.92-.74,1.67-1.12,1.48-.74,2.97-1.11,4.46-1.11,2.23,0,4.08.93,5.57,2.79,1.48,1.86,2.23,3.72,2.23,5.57,0,2.23-.56,3.9-1.67,5.02-10.03,12.26-23.04,25.82-39.01,40.68-15.98,14.86-33.63,28.7-52.94,41.51-19.32,12.82-39.66,23.59-61.02,32.32-21.37,8.72-42.26,13.09-62.69,13.09-17.09,0-31.86-1.95-44.3-5.85-12.45-3.9-22.66-9.39-30.65-16.44-7.99-7.05-13.93-15.23-17.83-24.52-3.9-9.28-5.85-19.5-5.85-30.65,0-14.49,3.06-29.9,9.19-46.25,6.13-16.34,14.95-32.5,26.47-48.48,11.51-15.97,25.44-31.29,41.79-45.97,16.34-14.67,34.64-27.58,54.89-38.73,20.24-11.15,42.25-20.06,66.03-26.75,23.77-6.69,48.85-10.03,75.23-10.03,20.06,0,34.73,3.54,44.02,10.59,9.28,7.06,13.93,15.98,13.93,26.75ZM1443.67,583.16c0-9.28-3.9-13.93-11.7-13.93-4.83,0-11.62,4.27-20.34,12.82-8.73,8.55-17.47,19.22-26.19,32.04-8.73,12.82-16.25,26.75-22.57,41.79-6.32,15.04-9.47,29.07-9.47,42.07v5.57c12.26-6.31,23.77-14.77,34.55-25.35,10.77-10.59,20.34-21.73,28.7-33.43s14.95-23.03,19.78-33.99c4.82-10.95,7.24-20.15,7.24-27.58Z"/>
    </g>
    <g id="Holding_Paper" data-name="Holding Paper">
      <path class="cls-9" d="M892.83,306.29h.11l-.42.17c.05-.06.1-.12.15-.19.05,0,.11,0,.16.01Z"/>
      <path class="cls-9" d="M932.52,342.75s-26.07-69.59-28.65-92.21c-2.59-22.62-17.24-57.31-17.24-57.31l-17.61-3.02-5.01,16.59,7.76,56.23-11.2-1.08-26.07-45.67-15.3-7.76-11.2,8.83-3.45,12.28,32.96,61.27-8.83,2.93-37.7-26.5-14.87-.86-11.2,11.85,13.14,19.82,33.18,23.91,13.57,9.48,11.42,28.97,11.42,11.97,19.39,3.66,8.83,10.99,16.99.86,22.22-6.68,17.45-15.94s6.25-14.22,0-22.62Z"/>
      <path class="cls-4" d="M942.08,351.19c0,13.07-9.93,27.74-26.32,37.01-.33.19-.67.37-1,.56-12.99,7.05-27.39,9.26-38.55,5.91-7-2.1-12.31-6.22-15.36-11.91-.42-.79-.79-1.62-1.11-2.44-1.74-.09-3.52-.32-5.31-.74-3.1-.7-6.2-1.98-9.05-3.75-2.85-1.77-5.47-3.99-7.79-6.49-2.31-2.52-4.26-5.36-6.02-8.27-.78-1.36-1.57-2.74-2.37-4.12-.39-.7-.79-1.39-1.19-2.1-.4-.72-.77-1.44-1.16-2.17-.75-1.47-1.56-2.91-2.27-4.44-.73-1.52-1.51-3.06-2.17-4.6-.67-1.49-1.33-3-2-4.53-.31-.62-.6-1.25-.91-1.89-.3-.49-.59-1-.9-1.51,0,0-.02-.04-.07-.1-.12-.15-.37-.48-.74-.98-.06-.07-.12-.16-.2-.26-.01.01-.02.01-.01,0l-.02-.02-.07-.09c-.06-.05-.15-.15-.19-.19h-.04s-.01,0-.06-.04c-.48-.37-1.14-.86-2.02-1.43-1.73-1.15-4.06-2.57-6.8-4.2-2.74-1.64-5.88-3.51-9.3-5.6-6.83-4.25-14.85-9.33-22.83-16.27-1.99-1.74-3.98-3.62-5.89-5.68-1.9-2.06-3.78-4.28-5.47-6.84-.83-1.3-1.62-2.53-2.43-4.23-.74-1.64-1.38-3.41-1.7-5.3-.21-.93-.27-1.9-.35-2.86-.01-.98-.04-1.95.09-2.93.09-.98.28-1.93.49-2.88.26-.93.52-1.86.9-2.74.72-1.78,1.65-3.42,2.75-4.89,1.11-1.48,2.35-2.81,3.73-3.96,2.74-2.32,5.95-4.01,9.46-4.94,1.77-.46,3.6-.73,5.49-.73,1.89.01,3.8.27,5.67.8,1.86.58,3.63,1.43,5.23,2.49l1.14.85.28.21.22.19.35.28c.46.38.91.75,1.37,1.14,3.69,2.99,7.44,5.83,11.01,8.44,3.58,2.62,7.01,5.01,10.2,7.15,2.89,1.93,5.57,3.63,7.99,5.06-1.63-2.77-3.62-5.95-5.94-9.67-4.63-7.41-10.96-17.55-18.64-31.13-5.6-9.94-5.48-17.79-4.39-22.62,1.44-6.41,5.41-11.73,11.16-14.99,10.02-5.65,24.62-4.01,31.71,8.54,7.04,12.47,15.32,27.12,22.31,37.95-1.07-7.59-2.83-16.8-4.44-25.27-1.07-5.65-2.1-10.99-2.93-15.88-1.01-5.88-.14-11.41,2.53-16,2.47-4.23,6.42-7.48,11.14-9.16,10.55-3.75,21.97.78,27.76,11.02,6.59,11.67,9.44,30.17,11.73,45.03.89,5.78,1.73,11.31,2.62,15.04l-13.88-1.95c-.59-3.26-1.16-6.99-1.79-11.07-2.12-13.81-4.77-30.99-10.17-40.55-3.01-5.35-8.12-6.41-11.85-5.07-1.95.69-6.35,3.1-5.07,10.49.81,4.77,1.81,10.04,2.88,15.62,2.07,10.83,4.18,21.92,5.15,30.59-5.35,2.15-18.59,13.31-18.59,13.31-8.35-11.26-19.64-31.26-28.87-47.6-3.15-5.56-9.42-5.97-13.73-3.53-1.74.98-3.99,2.89-4.78,6.38-.83,3.69.21,8.26,3.01,13.22,7.53,13.32,13.53,22.92,18.34,30.63,5.16,8.27,8.79,14.07,10.9,19.2.48-.4.96-.78,1.44-1.16.12-.41.25-.8.41-1.17-.6,2.12.94,14.41.94,14.41-1.15.91-2.23,1.79-3.26,2.65-.72.63-1.42,1.23-2.11,1.83-.64.62-1.27,1.22-1.88,1.81-.31.28-.62.58-.91.85-.27.31-.54.6-.81.9-.54.58-1.07,1.14-1.59,1.67-1,1.1-1.86,2.16-2.73,3.04-.21.22-.43.43-.63.65-.2.21-.38.42-.56.62-.36.41-.72.77-1.05,1.07-1.35,1.27-2.44,1.86-3.16,1.56-.72-.31-.99-1.49-.81-3.44.04-.48.11-1.01.2-1.59.06-.28.11-.59.17-.9s.16-.62.26-.95c.41-1.28.86-2.78,1.57-4.36.37-.78.78-1.59,1.22-2.43.19-.33.37-.69.56-1.04-.41-.16-.8-.31-1.22-.49-2.47-1.07-5.15-2.48-8.06-4.18-2.93-1.7-6.09-3.7-9.46-5.95-3.36-2.25-6.94-4.75-10.65-7.47-3.73-2.73-7.58-5.64-11.55-8.86-.49-.41-.99-.81-1.49-1.22l-.37-.32c-.09-.06-.11-.09-.14-.1l-.1-.07c-.12-.09-.23-.17-.36-.27-.49-.31-1.01-.57-1.57-.75-.58-.15-1.21-.25-1.89-.26-.68,0-1.42.11-2.16.3-1.49.4-3.02,1.19-4.27,2.26-.64.52-1.19,1.12-1.65,1.75-.48.62-.85,1.28-1.11,1.95-.16.33-.22.67-.35,1-.05.33-.15.67-.16,1.01-.06.33-.01.67-.04,1,.05.35.04.69.14,1.04.1.69.37,1.41.69,2.14.31.65.9,1.63,1.47,2.51,1.16,1.78,2.6,3.51,4.15,5.16,1.53,1.65,3.19,3.23,4.91,4.74,6.91,6.02,14.48,10.89,21.05,14.96,3.3,2.02,6.38,3.85,9.15,5.51,2.77,1.65,5.21,3.12,7.32,4.52,1.04.68,2.05,1.41,2.98,2.12.3.25.63.54.93.8.15.14.28.27.42.4.09.07.16.15.22.22.07.07.14.14.2.2l.1.1.04.05.3.32.02.02c.14.17.26.35.38.49.96,1.27,1.47,1.95,1.47,1.95.51.79,1.01,1.63,1.47,2.43.07.14.14.26.21.38.43.88.89,1.81,1.26,2.64.65,1.54,1.32,3.06,1.98,4.58.6,1.48,1.3,2.86,1.93,4.3.63,1.41,1.36,2.79,2.02,4.17.33.69.65,1.38,1.01,2.06.36.68.72,1.36,1.07,2.04.7,1.35,1.39,2.68,2.09,4.01,1.32,2.37,2.67,4.57,4.22,6.47,3.1,3.75,6.68,6.43,10.55,7.68,3.86,1.3,7.94,1.37,11.67.67,3.73-.69,7.1-2.04,9.91-3.53,2.84-1.47,5.11-3.12,6.9-4.57,3.59-2.89,5.21-5.09,6.11-4.72.41.17.57.99.28,2.42-.27,1.43-1.06,3.39-2.53,5.68-1.47,2.27-3.6,4.85-6.62,7.3-2.56,2.09-5.74,4.12-9.6,5.68,1.46,1.84,3.65,3.21,6.55,4.09,7.74,2.32,18.65.46,28.47-4.88,14.94-8.11,23.79-22.31,19.3-30.7-.26-.48-.57-.93-.9-1.36l7.97-10.79c1.84,1.72,3.38,3.7,4.57,5.93,1.81,3.39,2.68,7.11,2.68,10.96Z"/>
      <path class="cls-8" d="M892.94,306.29l-.42.17c.05-.06.1-.12.15-.19.05,0,.11,0,.16.01h.11Z"/>
      <line class="cls-5" x1="879.09" y1="307.83" x2="869.02" y2="311.83"/>
      <polygon class="cls-14" points="690.62 146.96 892.52 89.66 949.93 279.89 774.64 360.52 690.62 146.96"/>
      <path class="cls-9" d="M865.16,306.28l19.57-2.02-2.89,25.87,6.46,16.86s8.21,7.74,16.79,5.48c8.58-2.26,26.62-21.32,26.62-21.32l4.26-37.96-10.38-20.77-21.45-10.89-25.05-.85-17.51,14.13-8.85,12.43v10.04l12.43,9Z"/>
      <path class="cls-4" d="M942.09,302.64c.01,4.56-.16,9.28-1,13.96-.11.59-.22,1.17-.35,1.75l-.17.86-.2.83c-.27,1.09-.59,2.16-.9,3.21-.65,2.11-1.41,4.15-2.23,6.1-.73,1.72-1.54,3.37-2.41,4.95l-7.97,10.79c-.95.94-1.91,1.79-2.9,2.58-2.6,2.07-5.3,3.59-7.85,4.49-2.54.93-4.89,1.26-6.78,1.21-1.9-.05-3.33-.47-4.23-.9-.91-.48-1.32-.95-1.27-1.41.1-.94,1.95-1.48,4.56-2.74,2.6-1.27,5.94-3.49,9.14-7.41,3.2-3.86,6.22-9.33,8.37-15.9.53-1.65,1.01-3.36,1.44-5.12.2-.89.41-1.78.58-2.69l.14-.69.09-.65c.06-.44.14-.89.2-1.33.47-3.42.57-7.2.57-11.3v-.54c0-.2,0-.38-.01-.57v-.28c0-.99-.02-1.93-.06-2.84-.02-.48-.04-.95-.07-1.41-.01-.4-.05-.79-.07-1.17-.02-.36-.06-.72-.1-1.07-.04-.38-.07-.75-.12-1.11-.04-.28-.07-.56-.11-.83-.05-.33-.1-.65-.16-.98-.06-.41-.14-.8-.23-1.21l-.26-1.15c-.22-.86-.47-1.7-.78-2.57-.11-.35-.23-.68-.38-1.02-.14-.4-.31-.79-.48-1.2-.52-1.2-1.14-2.42-1.85-3.69-3.83-6.75-10.9-10.55-21.64-11.63-1.68-.17-3.38-.37-5.2-.59-2.68-.32-5.46-.67-8.1-.85-1.81-.12-3.58-.21-5.21-.17-1.6.05-3.1.21-4.25.49-.23.09-.48.16-.73.22-.22.09-.36.17-.54.23-.06,0-.26.14-.42.23l-.51.31-1.01.59c-.65.46-1.3.91-1.95,1.37-.64.52-1.28.99-1.93,1.53-2.58,2.14-5.2,4.68-8.02,7.15-.7.6-1.39,1.21-2.09,1.8-.31.27-.63.53-.94.8-.3.27-.59.53-.89.8-1.16,1.05-2.22,2.09-3.09,3.09-.84.99-1.47,1.93-1.86,2.75-.38.83-.58,1.52-.58,2.28s.17,1.67.52,2.65c.09.23.22.49.33.74.11.26.2.52.36.77.27.48.53,1.01.85,1.43.58.94,1.28,1.65,1.99,2.35.74.64,1.53,1.16,2.37,1.59.21.11.43.19.65.28.21.1.43.19.67.25l.68.21.72.15.35.09.37.04c.25.04.48.06.73.1.49,0,.99.07,1.48.04,2-.04,4.01-.44,5.88-1.07,1.88-.63,3.6-1.47,5.16-2.41,1.56-.93,2.94-1.95,4.16-2.98,1.21-1.04,2.25-2.07,3.15-3.05,1.79-1.98,3-3.74,3.86-4.96.48-.6.79-1.09,1.12-1.38.32-.31.6-.44.81-.4.22.06.38.31.49.75.09.43.17,1.1.07,1.91-.1,1.46-.56,3.52-1.64,5.95,1.3.31,2.53.6,3.67.88,1.27.27,2.46.54,3.47.69.54.11.98.14,1.46.22.22.01.43.04.64.05l.32.04h.3c.2.01.4.02.59.04.2,0,.38-.01.56-.01.38.01.72-.05,1.07-.07.69-.07,1.36-.19,1.96-.31.63-.09,1.16-.22,1.64-.2.48,0,.9.11,1.2.36.31.23.49.6.54,1.11.04.51-.02,1.19-.36,1.93-.12.33-.3.67-.52,1.02-.3.47-.68.96-1.15,1.47-.43.42-.9.89-1.47,1.27-.28.2-.58.39-.9.59-.31.17-.64.33-.99.51-.17.09-.35.17-.53.26-.17.06-.36.12-.54.2-.36.14-.74.27-1.14.4-.74.19-1.58.42-2.37.52-1.62.27-3.22.31-4.89.28h-.11s-.11-.01-.16-.01c-.05.06-.1.12-.15.19-1.09,1.28-2.05,2.91-2.83,4.63-1.1,2.43-1.86,5.09-2.41,7.67-.52,2.59-.83,5.15-.96,7.54-.14,2.41-.1,4.65.04,6.7.28,4.11,1,7.37,1.58,9.68.58,2.31.96,3.78.36,4.31-.54.51-2.16-.04-4.16-2.09-2-2.02-4.18-5.59-5.63-10.37-1.44-4.77-2.21-10.69-1.53-17.33.17-1.6.44-3.26.83-4.95.32-1.46.74-2.93,1.28-4.42-.81.52-1.67,1.02-2.59,1.48-2.41,1.22-5.18,2.21-8.35,2.67-.78.14-1.6.15-2.43.22-.42,0-.84-.01-1.26-.01h-.64s-.65-.06-.65-.06c-.43-.05-.88-.09-1.31-.14l-1.33-.26c-.44-.07-.89-.19-1.33-.33-.44-.14-.89-.25-1.33-.41-1.77-.67-3.49-1.57-5.09-2.73-1.56-1.17-3.02-2.54-4.22-4.09-.64-.75-1.15-1.57-1.69-2.38-.28-.4-.51-.85-.75-1.3-.12-.25-.26-.49-.39-.74,0,0-4.04-8.17-.94-14.41.02-.05.04-.1.05-.14.88-2.26,2.1-4.18,3.38-5.86,1.3-1.68,2.65-3.11,4.04-4.48.35-.33.69-.67,1.04-1,.33-.32.68-.63,1.02-.95.63-.59,1.27-1.19,1.9-1.78.6-.57,1.22-1.15,1.84-1.75,0,0,13.25-11.16,18.59-13.31,2.51-.63,4.81-.83,7.04-.91,2.27-.07,4.42.04,6.55.17,2.46.19,4.89.46,7.27.74l13.88,1.95c11.2,2.58,19.36,8.3,24.31,17.06,2.49,4.43,4.02,8.52,4.95,12.43.16.67.31,1.33.43,2,.86,4.52,1.01,8.81,1.02,13.11Z"/>
    </g>
    <g>
      <g>
        <g>
          <polyline class="cls-16" points="1201.43 371 1233.3 425.47 1228.91 437.92 1103.68 490.16"/>
          <polyline class="cls-17" points="1201.43 371 1233.3 425.47 1228.91 437.92 1103.68 490.16"/>
        </g>
        <g id="Fist_Down" data-name="Fist Down">
          <path class="cls-9" d="M1051.97,467.13h.16c.61.04,1.27.12,1.97.21.32.04.64.08.91.11l.83.11c.72.09,1.44.18,2.15.28l2.91.55.56.11c.73.14,1.42.28,2.08.46.3.08,3.69.96,3.69.96l1.72-2.12c.55-.68,1.05-1.25,1.52-1.75,1.53-1.62,3.26-3.06,5.12-4.3,3.27-2.17,6.9-3.66,10.79-4.42,5.58-1.1,11.6-.67,17.43,1.24,5.81,1.91,11.35,5.26,16.03,9.7,2.55,2.42,4.85,5.16,6.83,8.14,5.2,7.83,7.93,17.01,7.69,25.83-.12,4.33-.93,8.47-2.4,12.29-1.52,3.93-3.7,7.41-6.48,10.34-1.53,1.62-3.26,3.06-5.12,4.3-3.27,2.17-6.9,3.66-10.79,4.42-1.22.24-2.51.41-3.82.51l-1.93.14-1.16,1.55c-1.31,1.74-2.73,3.29-4.23,4.6-1.49,1.22-2.74,2.21-4.1,2.99l-1.29.78c-.21.11-.43.21-.64.31-.15.07-.3.14-.44.21l-1.32.62-.58.26-.6.23c-1.16.47-2.44.89-4.13,1.37l-5.13,1.46,2.56,4.68c1.09,1.99,1.87,4.19,2.31,6.53.45,2.44.53,4.94.24,7.43-.7,5.96-3.22,11.36-7.28,15.63-3.37,3.55-7.71,6.19-12.55,7.61-3.51,1.03-7.43,1.65-11.63,1.85-3.73.17-7.44-.02-10.69-.53-5.12-.86-9.67-2.47-13.54-4.83-1.85-1.11-3.56-2.4-5.09-3.85-1.07-1.02-2.06-2.12-2.92-3.26l-1.18-1.56-1.96-.12c-4.63-.28-9.05-1.49-13.13-3.61-2.39-1.23-4.59-2.79-6.53-4.64-.19-.18-.38-.36-.54-.53-2.05-2.08-3.7-4.49-4.8-6.99-.58-1.3-1.04-2.71-1.36-4.21l-.41-1.92-2.37-1.28c-.18-.09-.5-.31-.81-.51l-1.61-1.08c-.17-.11-.46-.34-.73-.57l-.29-.24-1.41-1.17-1.36-1.36-.69-.7c-.12-.15-.25-.3-.37-.45,0,0-.49-.6-.64-.79-.31-.38-.61-.74-.87-1.1l-1.27-1.93c-1.61-2.7-2.89-5.72-3.68-8.72-.82-3.2-1.29-6.71-1.41-10.44-.04-3.55.23-7.28.81-11.07.56-3.62,1.6-7.35,3.08-11.1,2.76-7.04,6.97-13.58,12.17-18.9.14-.14.27-.29.41-.43.15-.16.29-.32.44-.45l1.03-.94c.26-.23.51-.46.76-.69.42-.39.82-.75,1.21-1.07l2.15-1.67c.14-.11.28-.21.42-.32.15-.12.3-.24.44-.33l1.12-.74,2.14-1.39c.47-.27.94-.52,1.4-.77l1.82-.98c.21-.11.49-.27.66-.34l2.45-1.06c.93-.44,1.94-.77,3-1.11.26-.09,1.24-.41,1.48-.49.37-.12.74-.25,1.03-.33l6.29-1.63,6.39-1.37c9.31-1.77,18.66-2.34,27.06-1.65Z"/>
          <path class="cls-4" d="M1017.54,466.02c-.45.12-.93.24-1.42.37-.99.26-2.05.53-3.19.83-.57.15-1.16.3-1.76.46-.61.17-1.31.42-1.99.63-1.37.46-2.83.89-4.27,1.56-.73.31-1.47.64-2.23.96-.38.15-.75.35-1.12.55-.37.2-.74.4-1.12.6-.75.41-1.52.81-2.28,1.25-.74.48-1.49.97-2.25,1.46-.38.25-.76.5-1.14.75-.38.25-.73.55-1.1.83-.73.57-1.47,1.14-2.22,1.73-.73.6-1.42,1.26-2.14,1.9-.36.33-.71.65-1.07.98-.36.33-.68.7-1.02,1.04-5.48,5.6-10.08,12.62-13.1,20.32-1.52,3.84-2.69,7.89-3.33,12-.6,3.93-.91,7.9-.86,11.81.12,3.92.61,7.78,1.54,11.41.97,3.64,2.45,7.01,4.2,9.92.47.71.93,1.41,1.38,2.1.48.66,1.01,1.28,1.49,1.89.25.3.49.61.74.9.27.27.53.54.79.81.53.53,1.04,1.04,1.53,1.53.54.45,1.06.88,1.56,1.29.51.41.98.83,1.49,1.14.5.33.97.66,1.43.96.46.31.89.6,1.33.82.18.1.36.2.54.29.36,1.7.9,3.41,1.63,5.05,1.33,3.03,3.28,5.83,5.64,8.24,2.38,2.39,5.14,4.41,8.16,5.96,4.51,2.34,9.55,3.75,14.81,4.07,2.46,3.26,5.64,6.05,9.22,8.2,4.54,2.76,9.7,4.49,15.02,5.38h0c3.47.55,7.44.78,11.59.59,4.15-.19,8.48-.8,12.64-2.02,5.56-1.64,10.54-4.65,14.44-8.76,4.53-4.76,7.59-11.03,8.42-18.06.34-2.85.26-5.79-.28-8.71-.5-2.66-1.39-5.31-2.76-7.8,1.52-.43,3.05-.91,4.55-1.51l.67-.25.7-.32c.46-.22.93-.43,1.39-.65.46-.22.92-.43,1.36-.67.43-.26.86-.52,1.29-.78,1.74-.99,3.27-2.23,4.74-3.44,1.88-1.63,3.49-3.43,4.89-5.29,1.45-.11,2.9-.29,4.33-.57,4.31-.85,8.51-2.52,12.32-5.06,2.16-1.43,4.11-3.09,5.85-4.91,3.24-3.41,5.69-7.41,7.36-11.73,1.67-4.32,2.56-8.97,2.69-13.71.25-9.5-2.52-19.45-8.4-28.3-2.2-3.31-4.7-6.28-7.44-8.88-5.21-4.94-11.26-8.56-17.63-10.66-6.37-2.09-13.1-2.65-19.58-1.38-4.32.85-8.51,2.52-12.33,5.06h0c-2.16,1.43-4.11,3.09-5.85,4.91-.61.64-1.19,1.32-1.74,2-.33-.09-.67-.17-1.01-.26-.95-.27-1.92-.44-2.92-.63-.99-.19-2-.38-3.03-.58-1.03-.15-2.08-.28-3.14-.41-1.06-.12-2.14-.3-3.24-.34-8.76-.72-18.44-.15-28.25,1.72,0,0-1.9.41-5.22,1.12-.41.09-.85.18-1.31.28ZM996.9,489.79c.28-.25.56-.51.84-.76.56-.5,1.09-1.02,1.66-1.49.58-.45,1.15-.89,1.72-1.33.28-.21.55-.45.85-.64.3-.19.59-.38.88-.57.58-.38,1.15-.76,1.72-1.13.59-.33,1.17-.63,1.75-.94.29-.16.57-.31.85-.46.28-.16.56-.31.85-.42.58-.25,1.14-.49,1.7-.73,1.09-.53,2.21-.84,3.25-1.19.53-.17,1-.35,1.55-.5.56-.15,1.11-.29,1.63-.42,1.06-.27,2.04-.53,2.96-.77.46-.12.89-.23,1.31-.34.42-.09.82-.18,1.2-.26,3.05-.66,4.79-1.03,4.79-1.03,7.02-1.33,13.81-2.12,20.16-2.38,1.77-.07,3.51-.11,5.2-.11.98-.04,1.93.05,2.88.07.95.04,1.88.07,2.81.11.92.08,1.82.16,2.71.23.89.08,1.78.12,2.63.26,1.71.25,3.39.38,4.97.71.8.14,1.58.27,2.34.4.77.11,1.5.32,2.23.47.73.16,1.44.31,2.14.46.7.14,1.36.35,2.01.51,1.3.34,2.56.62,3.7.98,1.17.33,2.25.63,3.25.91.99.31,1.91.58,2.76.8.85.22,1.61.42,2.26.59.67.16,1.25.27,1.75.32.99.11,1.63,0,1.85-.37.22-.37.02-.96-.58-1.78-.3-.41-.7-.87-1.21-1.38-.25-.26-.52-.53-.82-.81-.3-.28-.64-.55-1-.84-.71-.57-1.53-1.19-2.43-1.86-.91-.64-1.95-1.27-3.07-1.95-1.11-.71-2.36-1.33-3.69-2-.26-.13-.52-.26-.79-.4.52-.42,1.05-.82,1.62-1.2h0c2.43-1.61,5.06-2.67,7.86-3.22,2.79-.55,5.75-.59,8.77-.11,6.03.95,12.27,4,17.5,8.97,2.06,1.96,3.97,4.21,5.65,6.74,3.37,5.08,5.36,10.56,6.06,15.87.7,5.31.11,10.43-1.58,14.8-1.13,2.92-2.73,5.5-4.79,7.66-1.1,1.16-2.34,2.2-3.71,3.12-1.09.72-2.22,1.33-3.38,1.83.14-.69.3-1.37.36-2.05.15-1.39.34-2.7.29-3.98,0-.63-.01-1.25-.02-1.85,0-.6-.11-1.18-.16-1.75-.14-1.13-.26-2.18-.54-3.14-.26-.96-.46-1.85-.77-2.64-.32-.79-.64-1.49-.94-2.11-.28-.62-.64-1.14-.97-1.58-.33-.44-.64-.79-.93-1.05-.58-.53-1.07-.72-1.47-.58-1.77.61-.86,6.12-2.9,13.64-.19.94-.59,1.89-.91,2.88-.14.5-.38.98-.59,1.48-.22.5-.41,1.01-.64,1.51-.26.49-.52.99-.78,1.5-.13.25-.25.52-.39.76-.15.25-.31.49-.46.74-.32.49-.59,1.02-.94,1.5-.35.48-.71.97-1.07,1.46-1.51,1.91-3.22,3.78-5.25,5.36-1.04.74-2.07,1.54-3.23,2.14-.28.16-.56.33-.84.5-.29.15-.6.27-.89.41-.3.14-.6.27-.89.41l-.45.21-.52.2c-1.78.7-3.58,1.27-5.38,1.74-1.39.37-2.79.68-4.19.94-2.38.44-4.76.76-7.14,1-2.78.3-5.56.52-8.25.85-2.69.33-5.29.76-7.68,1.4-2.38.64-4.52,1.47-6.28,2.41-1.77.94-3.17,1.95-4.18,2.92-2.04,1.93-2.65,3.47-2.17,4.15.51.72,2.06.54,4.41.13,1.31-.23,2.87-.48,4.67-.67.03.37.06.73.09,1.09.09,1.7.07,3.29-.05,4.8-.15,1.49-.39,2.9-.7,4.23-.15.56-.31,1.11-.47,1.65-.22.72-.45,1.42-.71,2.08-.87,2.32-1.79,4.28-2.31,5.81-.54,1.51-.66,2.62-.14,3.14.51.52,1.62.41,3.2-.35,1.56-.78,3.59-2.24,5.66-4.66.64-.73,1.25-1.58,1.85-2.51.7.27,1.31.6,1.91.95.06.04.11.08.17.11.25.17.5.32.72.52.15.11.29.22.43.33.14.12.27.24.4.36,1.06.95,1.93,1.99,2.71,2.7.75.73,1.44,1.14,2.04,1.01.59-.13,1.04-.8,1.26-1.99.18-1.18.13-2.92-.68-5.01-.11-.26-.22-.53-.33-.8-.13-.27-.28-.53-.43-.81-.29-.56-.69-1.09-1.11-1.65-.17-.2-.35-.4-.53-.6-.78-.86-1.71-1.68-2.79-2.36-.17-.11-.35-.2-.53-.31.01-.04.02-.08.04-.13.5-2.13.77-4.39.82-6.7,0-.34,0-.68-.02-1.02.38.02.75.03,1.14.05,2.53.12,5.33.28,8.41.29.19,0,.39,0,.58,0,.29,0,.57,0,.87,0h0c.65.4,1.23.84,1.75,1.33.7.66,1.3,1.43,1.81,2.29.51.86.93,1.83,1.24,2.86.63,2.06.8,4.39.54,6.55-.53,4.4-2.36,8.09-5.09,10.98-2.36,2.49-5.41,4.36-8.94,5.4-2.95.87-6.38,1.38-9.7,1.53-1.98.09-3.92.06-5.71-.07-1.2-.09-2.34-.21-3.35-.38h0c-3.98-.67-7.71-1.86-10.86-3.62-3.16-1.73-5.73-3.99-7.49-6.49-.25-.3-.42-.63-.62-.95-.19-.32-.41-.63-.56-.97-.17-.33-.33-.66-.49-.98-.13-.34-.26-.67-.39-1-.15-.33-.22-.67-.33-1.01l-.15-.51-.08-.26-.06-.3c-.15-.81-.35-1.61-.45-2.4-.5-3.17-.63-6.19-.53-9.06.1-2.87.37-5.58.56-8.03.2-2.44.34-4.62.32-6.43-.03-3.62-.6-5.66-1.44-5.77-.86-.11-1.89,1.64-3.29,4.81-.69,1.59-1.5,3.54-2.36,5.89-.85,2.35-1.77,5.12-2.49,8.38-.72,3.25-1.16,7.04-1.02,11.12,0,.94.11,1.89.19,2.85-1.4-.4-2.75-.9-4.01-1.52-2.03-.96-3.83-2.2-5.35-3.58-1.5-1.4-2.72-2.96-3.59-4.63-.88-1.68-1.41-3.44-1.67-5.31-.1-1.11-.27-2.21-.32-3.28-.03-.54-.07-1.08-.11-1.61-.01-.53-.02-1.06-.03-1.58-.09-4.19.38-8.14,1.01-11.77.64-3.64,1.47-6.97,2.24-9.92.76-2.95,1.49-5.52,2-7.66,1.07-4.27,1.37-6.81.58-7.18-.77-.35-2.55,1.49-5.01,5.24-1.21,1.89-2.62,4.24-4.06,7.12-1.44,2.87-2.95,6.25-4.25,10.21-.95,2.92-1.81,6.18-2.35,9.71-.27-.34-.57-.68-.84-1.05-.28-.43-.57-.88-.87-1.33-1.11-1.87-2.11-4.07-2.79-6.63-.65-2.57-1.03-5.43-1.13-8.49-.03-3.07.21-6.31.71-9.63.49-3.13,1.39-6.28,2.61-9.36,2.41-6.17,6.14-11.83,10.43-16.21.27-.27.52-.57.8-.82Z"/>
          <path class="cls-4" d="M1078.58,508.83c.18.62-1.14,1.63-3.22,2.78-1.04.58-2.28,1.19-3.61,1.83-1.32.71-2.75,1.43-4.2,2.15-.73.35-1.46.7-2.18,1.05-.36.17-.72.35-1.08.52-.35.18-.7.37-1.05.55-1.38.72-2.71,1.39-3.89,1.98-2.39,1.14-4.08,2.13-4.63,2.4-2.15,1.1-4.63.68-5.54-.93-.91-1.61.22-3.87,2.52-5.05.57-.28,2.43-1.25,4.98-2.23,1.27-.51,2.7-1.07,4.2-1.65.38-.14.76-.29,1.14-.43.39-.14.78-.26,1.18-.39.79-.25,1.59-.5,2.38-.76,1.59-.49,3.16-.96,4.64-1.36,1.5-.35,2.91-.6,4.12-.78,2.42-.35,4.06-.33,4.24.3Z"/>
          <path class="cls-4" d="M1048.84,484.96c1.74-.16,3.35-.28,4.72-.32,2.8.05,4.61.36,4.67,1.01.06.65-1.62,1.4-4.13,2.19-1.26.47-2.73.95-4.33,1.43-1.59.55-3.3,1.1-5.02,1.66-2.25.75-4.52,1.54-6.6,2.29-4.31,1.54-7.81,2.88-8.63,3.24-.64.24-1.29.38-1.89.44-.59.07-1.17.05-1.7-.05-1.06-.21-1.93-.74-2.32-1.58-.4-.84-.22-1.82.43-2.76.32-.47.76-.92,1.29-1.33.53-.4,1.14-.72,1.82-.98,1.13-.49,6.49-2.24,12.51-3.61,1.24-.28,2.51-.55,3.78-.79,1.86-.33,3.7-.61,5.42-.84Z"/>
          <path class="cls-4" d="M1055.7,496.86c3.99-.87,7.99-1.37,11-1.35,3.03.03,5,.55,5.02,1.22.02.71-1.8,1.32-4.5,2.18-2.71.87-6.32,2.02-9.98,3.35-3.66,1.32-7.37,2.8-10.31,4.04-2.08.87-3.77,1.63-4.82,2.11-.44.2-.77.35-.97.43-1.35.59-2.7.79-3.85.64-1.13-.14-2.09-.65-2.55-1.52-.46-.86-.32-1.93.33-2.98.64-1.03,1.78-2,3.22-2.63.29-.12.84-.36,1.59-.66,1.14-.45,2.74-1.06,4.65-1.71,3.17-1.08,7.18-2.27,11.18-3.13Z"/>
        </g>
      </g>
      <path class="cls-4" d="M1190.11,413.41s9.65-14.63,11.69-12.59c2.04,2.04-2.44,9.16-.15,8.54,2.29-.62,12.08-12.21,15.48-10.85,3.4,1.36-4.45,10.89-13.31,17.66-4.63,3.54-5.18,4.09-12.33,6.77l-1.38-9.53Z"/>
    </g>
    <g>
      <g id="Head">
        <g id="Head-2" data-name="Head">
          <path id="Head_Color" data-name="Head Color" class="cls-7" d="M1220.23,180.91c.15-7.93-.15-15.87-1.12-23.64-.57-3.86-1.22-7.7-2.24-11.33,0,0-.04-.07-.05-.17-.38-2.04-4.7-22.81-22.16-40.19-2.7-2.67-5.69-5.29-9.04-7.71-2-1.46-4.13-2.87-6.39-4.19-.52-.31-1.04-.6-1.57-.89-.07-.04-.14-.07-.21-.13-1.14-.61-2.3-1.21-3.47-1.79-7.94-3.81-16.42-6.28-24.97-7.9-.08-.04-.14-.04-.23-.06-6.51-1.25-13.16-2.08-19.8-2.4-12.37-.58-25.61.04-37.12,4.96-5.56,2.37-10.38,6.11-15.38,9.44,0,0-.01,0-.01,0-.81.54-1.58,1.16-2.31,1.82l-2.21,1.91c-.82.7-1.62,1.33-2.36,1.92-.66.63-1.32,1.23-1.94,1.75-1.24,1.06-2.28,1.85-3.1,2.34-1.65,1.02-2.4.89-1.8-.7l1.68-4.4c.57-1.44,1.12-3.05,1.82-4.43l2.12-4.35,1.08-2.22c.28-.52.59-1.03.87-1.52-.35.12-.75.26-1.12.38-5.91,2.07-12.7,4.99-18.97,9.64-6.27,4.62-11.96,11.08-16.02,19.19-2.7,5.33-4.57,11.01-5.75,16.6-.43,1.89-.76,3.84-1.03,5.72l1.76,153.63,18.69-1.31-.7,26.19,31.32-8.87,10.34,18.74,20.28-15.08,22.06,16.03,18.75-20.09,24.47,12.02,8.26-27.5,16.57,10.06,9.92-11.71c-.49-5.04-.73-10.13-.67-15.22.22-4.13.31-8.28.96-12.36l.4-3.1.11-.81c.01-.11.03-.35.09-.58l.1-.41.3-1.41,1.23-5.68c2.58-12.85,4.74-25.85,6.28-38.95.31-2.52.57-5.06.85-7.56.63-6.43,1.09-12.86,1.3-19.29.07-1.47.12-2.95.16-4.4Z"/>
          <g id="Eye">
            <path id="Eye_Shape" data-name="Eye Shape" class="cls-4" d="M1106.36,152.13c-.95,1.69-.78,2.73,0,3.39,2.16,1.83,7.54-.42,15.51-3.5.41-.13.81-.3,1.25-.44-1.99,2.04-3.57,4.09-4.87,6.07-4.54,7.11-5.05,12.87-2.77,14.3,2.27,1.45,6.43-.79,12.33-4.27.46,2.44,1.32,5.48,2.9,8.94,1.12,2.29,2.54,4.72,4.54,7.12,2.01,2.36,4.63,4.65,7.82,6.37,3.19,1.78,6.9,2.74,10.65,3.01,3.71.26,7.46-.18,11.04-1.09,3.57-.92,7.06-2.31,10.07-4.49,2.96-2.17,5.38-5.1,6.65-8.35,1.33-3.21,1.7-6.54,1.55-9.5-.13-2.97-.72-5.64-1.39-7.99-.58-1.89-1.24-3.58-1.91-5.05,5.25.56,8.97.66,9.94-1.26.55-1.03-.82-2.75-2.16-4.66,3.56,1.57,7.81,2.18,9.09.7,1.58-1.83.41-3.82-6.83-11.09-26.48-26.57-68.68-14.36-83.4,11.78Z"/>
            <path id="Iris" class="cls-9" d="M1132.34,165.13l6.38-2.34c12.28,28.22,35.17,18.25,38.17,6.07,1.38,24.42-38.57,26.82-44.55-3.73Z"/>
            <path id="Eyebrow" class="cls-11" d="M1182.83,152.31s-35.45-8.09-58.66,8.85c4.9-22.12,26.94-24.96,26.94-24.96l-5.78,7.12c28.94-6.25,37.5,8.98,37.5,8.98Z"/>
            <circle id="Spectal_Highlight" data-name="Spectal Highlight" class="cls-9" cx="1169.92" cy="162.84" r="4.7"/>
          </g>
          <path id="Collar_Color" data-name="Collar Color" class="cls-11" d="M1219.05,333.95l.02.03-22.81-9.86-12.62,39.05-30.89-17.79-21.15,30.93-25.2-26.74-34.26,24.26-19.77-29.64-36.4,9.05,4.8-29.92-31.34,3.73,32.54-42.06-.4,16.6,18.5-2.05-2.47,31.56,36.45-12.33,11.62,22.43,23.85-18.3,23.04,16.22,19.46-21.4,27.27,13.02,7.89-26.94,13.76,8.23s6.31-7.54,9.46-11.27c1.21,11.41,8.69,33.22,8.69,33.22l-.03-.02Z"/>
          <path id="Head_Outline" data-name="Head Outline" class="cls-4" d="M1230.29,333.13c.08.07.17.14.25.21-.08-.08-.17-.15-.26-.23-2.36-6.27-4.71-13.35-6.44-20.4-.88-3.66-1.66-7.33-2.31-11.03-1.27-6.88-1.95-13.81-2.13-20.76l-.06-5.18.29-5.17c.08-.87.08-1.74.2-2.57l.33-2.55.34-2.56.16-1.26.05-.29.02-.06.16-.69c1.86-8.43,3.47-16.87,4.89-25.4,1-6.09,1.9-12.18,2.69-18.34.39-2.97.72-5.93,1.04-8.89l.59-9.02,1.13-17.65c.08-3.27.06-6.58-.02-9.92-.21-7.79-.93-15.72-2.62-23.79-.13-.57-.27-1.12-.41-1.71-3.94-17.23-9.91-34.15-22.29-47.24-12.19-12.9-27.8-20.84-44.74-25.52-.2-.05-.39-.1-.59-.16-1.86-.51-3.73-.98-5.6-1.42-17.27-4.05-35.43-6.06-52.96-2.4-6.31,1.31-12.77,3.37-18.21,6.93-.25.17-1.31,1.18-1.62,1.17,0,0-.03,0-.03,0-.34-.04-.68-.08-1.03-.12-1.63-.2-3.41-.3-5.46-.41-1.41-.03-2.93.05-4.55.11-.83.03-1.67.03-2.52.14-.84.1-1.72.21-2.61.34-7.14.93-15.7,3.18-24.02,8.23-8.33,5.03-16.09,13.02-21.12,23.14-3.35,6.63-5.38,13.64-6.41,20.37-.54,3.37-.82,6.72-.91,9.95-.04,1.63-.02,3.25.05,4.84,0,.27.03.52.04.82l5.79,126.19-51.45,67.29,39.7-3.49-7.47,35.53,47.8-10.39,20.26,34,37.99-28.37,26.89,28.34,23.21-33.86,33.61,19.21,13.08-40.35,36.43,15.43c-.83-1.49-5-10.01-9.14-21.03ZM1028.45,132.86c1.18-5.58,3.05-11.27,5.75-16.6,4.06-8.11,9.75-14.57,16.02-19.19,6.27-4.65,13.06-7.57,18.97-9.64.37-.12.77-.26,1.12-.38-.28.48-.59.99-.87,1.52l-1.08,2.22-2.12,4.35c-.7,1.38-1.25,2.98-1.82,4.43l-1.68,4.4c-.59,1.59.16,1.72,1.8.7.82-.49,1.86-1.28,3.1-2.34.62-.52,1.27-1.11,1.94-1.75.74-.59,1.54-1.23,2.36-1.92l2.21-1.91c.73-.66,1.5-1.28,2.31-1.82,0,0,0,0,.01,0,5-3.32,9.83-7.06,15.38-9.44,11.52-4.91,24.76-5.54,37.12-4.96,6.63.32,13.29,1.15,19.8,2.4.09.01.15.02.23.06,8.55,1.62,17.03,4.09,24.97,7.9,1.17.58,2.33,1.18,3.47,1.79.07.06.14.09.21.13.53.29,1.05.58,1.57.89,2.26,1.32,4.39,2.73,6.39,4.19,3.36,2.43,6.35,5.04,9.04,7.71,17.46,17.38,21.79,38.15,22.16,40.19.02.1.05.17.05.17,1.01,3.62,1.67,7.47,2.24,11.33.96,7.77,1.27,15.71,1.12,23.64-.04,1.45-.09,2.93-.16,4.4-.22,6.42-.68,12.86-1.3,19.29-.28,2.5-.54,5.05-.85,7.56-1.53,13.1-3.7,26.1-6.28,38.95l-1.23,5.68-.3,1.41-.1.41c-.06.23-.08.47-.09.58l-.11.81-.4,3.1c-.65,4.08-.74,8.24-.96,12.36-.06,5.08.18,10.18.67,15.22l-9.92,11.71-16.57-10.06-8.26,27.5-24.47-12.02-18.75,20.09-22.06-16.03-20.28,15.08-10.34-18.74-31.32,8.87.7-26.19-18.69,1.31-1.76-153.63c.28-1.88.6-3.82,1.03-5.72ZM1219.07,333.98l-22.81-9.86-12.63,39.05-30.89-17.79-21.14,30.93-25.2-26.74-34.25,24.27-19.78-29.64-36.4,9.04,4.8-29.93-31.34,3.73,32.54-42.06-.4,16.6,18.5-2.05-2.47,31.55,36.45-12.34,11.62,22.43,23.85-18.3,23.04,16.22,19.46-21.4,27.27,13.02,7.89-26.95,13.76,8.23s6.31-7.55,9.45-11.27c1.22,11.41,8.69,33.23,8.69,33.23l-.03-.02.02.03Z"/>
        </g>
      </g>
      <g id="Smirk">
        <path id="Nostril" class="cls-4" d="M1077.94,185.06c-.36.57-.85.82-1.38.82-.54,0-1.13-.21-1.63-.44-.49-.22-1.08-.49-1.54-.76-1.05-.53-2.27-1.34-3.75-2.54-2.95-2.41-5.48-5.4-4.68-7.39.4-.97,1.65-1.45,3.39-1.27,1.75.19,3.94,1.01,6.07,2.75,2.1,1.7,3.66,4.12,3.93,6.28.11,1.1,0,1.96-.42,2.54Z"/>
        <path id="Beak_Outline" data-name="Beak Outline" class="cls-4" d="M1157.87,239.7c-.23-1.7-.73-3.43-1.54-5.05-.25-.53-.54-1.03-.83-1.51-1.3-2.05-3.15-3.79-5.23-5.06-1.08-.59-2.21-1.14-3.4-1.44-.57-.19-1.19-.25-1.8-.36-.57-.05-1.13-.11-1.67-.1-2.24-.05-4.28.34-6.12.92-2.48.77-4.63,1.87-6.49,3.06-2.28-1.06-5.07-2.77-7.94-5.54-1-.95-2.02-2.02-3.03-3.18-2.69-3.19-5.4-7.23-7.88-12.07-1.71-3.3-3.36-6.98-4.92-10.93-.76-2.01-1.51-4.06-2.31-6.23-.34-1.09-.8-2.28-1.28-3.44-.48-1.16-.98-2.35-1.46-3.56-2.19-4.7-4.7-9.61-8.07-14.33-3.35-4.73-7.19-9.52-11.89-13.84-4.64-4.39-9.98-8.46-16.05-11.85-6.06-3.36-12.91-6.05-20.31-7.26-.9-.15-1.86-.27-2.78-.43-.93-.1-1.87-.09-2.82-.16-.95-.05-1.9-.1-2.87-.1-.96.04-1.95.11-2.91.16-2.32.24-4.63.59-6.84,1.17,0,0-6,1.96-13.83,6.06-3.4,2.12-6.52,4.64-9.4,7.38-5.42,5.14-9.92,11.23-13.65,17.82-3.72,6.6-6.58,13.59-8.84,21.09-2.23,7.61-3.16,15.4-3.31,23.07-.11,7.65.61,15.23,2.19,22.62,1.58,7.37,3.91,14.54,7.71,21.36.91,1.71,2.01,3.38,3.24,5.02.58.83,1.32,1.62,1.97,2.43.39.37.75.77,1.1,1.16,8.7,13.48,24.2,4.58,24.79,4.25,0,0,6.32-6.68,7.24-4.43l.93,2.24c.49.46.95.94,1.45,1.38,2.75,2.39,5.93,4.66,9.67,6.26.57.23,1.14.48,1.76.69,3.24,1.17,6.83,1.82,10.36,1.73,4.22-.04,8.29-1.14,11.94-2.76.74-.29,1.37-.65,2.02-.97.68-.34,1.34-.67,1.93-1.07,1.16-.71,2.28-1.41,3.41-2.08,2.07-1.34,4.2-2.47,6.31-3.64,4.23-2.21,8.43-4.16,12.6-5.73,8.24-3.19,16.08-5.23,22.74-6.71,3.9-.86,7.42-1.55,10.43-2.14.34.41.72.83,1.13,1.25.38.37.82.76,1.36,1.11.26.2.55.34.87.5l.71.38c.91.44,1.85.84,2.82,1.21,1.93.72,3.94,1.3,6.08,1.63,4.17.69,8.8.24,12.49-1.64,3.67-1.82,6.34-4.68,7.87-7.46.77-1.39,1.44-3.01,1.87-4.78.21-.91.37-1.8.49-2.79.1-1.08.09-2.2,0-3.31ZM1150.52,241.79c-.05.6-.21,1.25-.36,1.83-.33,1.17-.77,2.19-1.25,3.05-.12.22-.25.45-.39.66-.28.43-.6.88-.96,1.31-.37.43-.78.84-1.22,1.25-.68.61-1.45,1.18-2.32,1.69-.32.19-.65.37-1.01.51-.17.09-.36.18-.57.25-.14.07-.3.13-.47.19-.25.11-.49.18-.76.26-.69.2-1.4.35-2.15.49h-.02c-.27.03-.57.08-.87.1-.2.02-.4.05-.62.05-.07.02-.13.01-.2.03h-.11c-.28.02-.57.03-.85.04h-.02c-.31.02-.61.02-.91,0h-.52c-.37-.03-.74-.04-1.14-.07-.3-.02-.61-.04-.92-.08-4.3-.54-.32-2.24-.32-2.24.02-.02.06-.03.08-.04.59-.28.88-.54.84-.78v-.03s-.02-.05-.03-.1c-.03-.03-.05-.05-.08-.1-.03-.02-.08-.06-.12-.08-.18-.15-.47-.31-.87-.48-6.28-1.52-20.29-.28-23.58.05-.27.03-.48.05-.59.05-.04,0-.08,0-.12.01-.44.05-.9.1-1.33.15-.9.11-1.82.25-2.75.4-.12,0-.2.03-.32.05-.75.12-1.51.24-2.28.38-1.04.18-2.12.38-3.19.59-.99.21-2,.44-3.01.67-1.03.23-2.06.48-3.1.76-.88.23-1.78.46-2.66.74-.13.04-.24.07-.37.11-.18.04-.36.09-.54.15-.62.17-1.22.36-1.85.56-.04,0-.08.03-.13.04-.27.07-.56.17-.83.26-4.57,1.48-9.22,3.42-13.92,5.69-2.31,1.19-4.68,2.41-6.96,3.83-.55.33-1.1.65-1.64.97-.55.33-1.1.66-1.65.98-.11.08-.24.16-.38.22-.13.07-.26.15-.38.23-.24.14-.5.27-.79.39-.31.15-.6.31-.91.47-.22.11-.43.2-.64.29-.69.3-1.39.59-2.1.82-.7.24-1.4.47-2.1.64-.37.08-.71.17-1.07.24-.71.14-1.42.24-2.12.3-.35.03-.7.05-1.05.06-2.76.09-5.52-.42-8.12-1.46-2.59-1.04-5.04-2.6-7.23-4.35-.33-.27-.66-.55-.96-.83-.32-.29-.63-.56-.94-.88l-.15-.14c2.34-1.42,4.76-2.7,7.25-3.89,11-5.19,22.83-8.37,35-9.66,8.36-.82,16.72-1.76,25.04-3.05,7.24-1.2,14.59-2.35,21.47-5.02.96-.42,1.97-.82,2.72-1.57-2.61,1.71-5.9,2.02-8.92,2.6-13.4,1.98-27,2-40.53,2.07-17.08-.06-34.67,3.22-50.02,11.09l-.05-.05c-.54.26-1.09.53-1.64.79l-1.09.53c-.27.14-.53.27-.8.4-.17.07-.32.16-.48.24-1.89.93-3.78,1.87-5.7,2.83-.07,0-.12.04-.16.05-.63.33-1.23.58-1.84.83-.65.28-1.27.56-1.92.84-.64.24-1.25.38-1.85.6l-.91.29c-.22.03-.36.02-.53.07h-.2c-.56.02-1.03-.03-1.68-.31-.69-.36-1.55-.83-2.43-1.68-.43-.37-.85-.83-1.28-1.33-.21-.23-.43-.5-.65-.77-.21-.27-.41-.54-.61-.83-.21-.29-.41-.58-.6-.88-.14-.21-.27-.41-.39-.61-.16-.27-.34-.55-.49-.83-.28-.45-.55-.93-.8-1.41-.35-.67-.7-1.34-1.02-2.04-.33-.67-.65-1.36-.93-2.06-.04-.07-.05-.12-.07-.19-.25-.57-.49-1.14-.7-1.72-.24-.6-.46-1.23-.67-1.85-.17-.43-.31-.86-.43-1.31,0-.02-.03-.04-.03-.06-.19-.55-.36-1.12-.53-1.69-.21-.73-.43-1.47-.61-2.22-.03-.14-.07-.26-.12-.4-.17-.68-.33-1.41-.5-2.11-.13-.52-.24-1.07-.35-1.6,0-.07-.02-.14-.04-.2v-.07c-.04-.08-.05-.18-.06-.26-.02-.09-.04-.19-.06-.26-.24-1.19-.45-2.41-.63-3.61-.07-.47-.15-.95-.21-1.4-.07-.44-.12-.9-.17-1.34-.25-1.84-.42-3.7-.54-5.56-.06-.93-.12-1.87-.15-2.81-.07-2.02-.07-4.04,0-6.07.03-1,.07-1.99.15-2.98v-.02c.03-.83.11-1.67.22-2.5-.01-.17.02-.33.03-.5.03-.26.05-.53.08-.8.12-1.06.25-2.09.43-3.16h0c.11-.83.26-1.63.42-2.43.03-.14.06-.28.08-.43,0-.08.03-.18.05-.26-.02-.02,0-.06,0-.07.4-2.1.9-4.17,1.48-6.22,1.02-3.3,2.16-6.53,3.47-9.68.39-.94.79-1.88,1.22-2.78.02-.06.04-.09.07-.13.02-.07.04-.13.08-.2.12-.25.22-.51.36-.75l.09-.2s0-.04.01-.05c.44-.94.9-1.86,1.37-2.78.29-.56.59-1.11.89-1.66.29-.55.6-1.09.92-1.63.29-.54.62-1.08.95-1.6.31-.52.64-1.04.97-1.57.34-.55.71-1.09,1.05-1.61.33-.49.67-.96,1.01-1.43.35-.49.7-.97,1.08-1.46.44-.59.91-1.19,1.38-1.76.28-.35.57-.69.85-1.01.45-.55.91-1.09,1.41-1.59.31-.38.66-.74,1.02-1.09.39-.44.82-.85,1.24-1.26,3.35-3.29,7.09-6.12,11.04-8.22.64-.33,1.28-.66,1.97-.96.24-.12.49-.21.75-.32.26-.13.51-.21.77-.31.03-.02.07-.03.1-.06.12-.06.26-.1.39-.16.34-.14.68-.27,1.02-.39,1.38-.51,2.78-.89,4.15-1.18.36-.08.72-.16,1.09-.22.32-.07.65-.13.99-.16.33-.08.7-.12,1.03-.17l.65-.04h.02s.39-.02.39-.02l1.04-.1c.37-.01.73,0,1.08.01.19,0,.36,0,.55.02.18,0,.36,0,.52,0,.26.02.5.02.76,0,.36,0,.74.02,1.09.04h.31c.24.05.5.08.74.12.47.07.94.12,1.44.17.6.07,1.21.16,1.8.28.05.01.08.02.13.03h.04c.64.12,1.3.25,1.95.42.16.03.34.07.51.12.17.03.34.07.52.14.36.07.73.18,1.09.28.31.07.59.16.89.26t.04.01c.35.1.72.21,1.07.33.28.08.56.17.82.27.38.12.76.26,1.15.41.34.12.67.24,1.01.38.05.02.12.04.17.06t.03.02c.49.17.94.38,1.41.58.66.28,1.33.58,2,.9.67.31,1.32.63,1.97.97.65.33,1.28.68,1.92,1.03,1.27.73,2.51,1.47,3.71,2.25.87.58,1.75,1.16,2.58,1.77.33.22.63.44.94.68.21.15.41.3.61.46.16.1.29.21.45.35.47.34.95.72,1.41,1.1l.06.05c.82.66,1.63,1.33,2.4,2.01.53.47,1.04.91,1.56,1.39,1.02.93,1.99,1.89,2.95,2.87.48.47.93.98,1.38,1.47.18.17.34.36.5.54.29.31.58.63.85.94.39.44.8.89,1.18,1.36.14.18.3.35.43.53.69.82,1.35,1.65,1.98,2.49.7.9,1.38,1.82,2.03,2.74.04.06.07.11.11.16.35.51.68,1,1,1.49.13.16.22.3.31.46.24.34.46.7.67,1.04.34.52.64,1.01.95,1.52.45.71.88,1.42,1.26,2.14.31.53.6,1.04.87,1.56.29.51.57,1.04.84,1.54.48,1.06.99,2.11,1.49,3.16.13.26.25.51.36.76.12.24.22.45.32.69.12.29.26.57.38.87.12.25.22.52.34.8.22.54.46,1.08.68,1.62.23.54.46,1.06.7,1.6.48,1.07.95,2.13,1.44,3.18,1.91,4.1,3.96,7.89,6.09,11.35,2.67,4.26,5.5,7.93,8.42,10.93.44.46.89.92,1.33,1.35.36.35.75.7,1.12,1.03.26.24.52.48.81.7.03.04.07.07.11.09.31.26.61.53.92.77.35.28.69.53,1.05.79.29.22.59.43.87.63.29.19.58.38.87.58,1.73,1.12,3.39,1.97,4.93,2.59,2.07.83,3.9,1.2,5.35,1.41.95.08,1.75.13,2.4.09.36-.02.66-.05.92-.11.1,0,.18-.02.26-.03.45-.1.71-.2.78-.33.05-.03.07-.07.07-.1,0-.05-.02-.1-.07-.15-.02-.03-.05-.07-.08-.08-.05-.05-.11-.08-.17-.14-.02,0-.04-.01-.05-.02-.44-.35-1.22-1.15.86-1.29.37-.01.74-.03,1.12-.03,1.72-.02,3.41.09,4.98.43.4.08.79.2,1.12.3.18.07.34.13.52.18.13.03.24.09.37.16.02,0,.02.01.04.01.03,0,.04.02.08.04.16.07.3.16.47.24.46.25.89.58,1.31.88,1.07.89,1.99,1.97,2.6,3.16.09.22.18.39.24.59.13.29.27.6.36.91.07.2.12.4.16.62.05.2.08.4.12.6.02.08.01.17.03.23.01.16.05.29.05.44.02.08.03.18.03.25v.29c.02.49-.02.96-.11,1.45Z"/>
        <path id="Beak_Color" data-name="Beak Color" class="cls-11" d="M1150.63,240.35v-.29c0-.08-.02-.17-.04-.25,0-.15-.04-.28-.05-.44-.02-.07-.01-.16-.03-.23-.04-.2-.07-.4-.12-.6-.04-.21-.09-.42-.16-.62-.09-.3-.23-.62-.36-.91-.06-.2-.15-.37-.24-.59-.61-1.2-1.53-2.27-2.6-3.16-.42-.31-.86-.63-1.31-.88-.16-.08-.3-.17-.47-.24-.04-.02-.05-.04-.08-.04-.02,0-.02-.01-.04-.01-.13-.07-.24-.13-.37-.16-.17-.06-.33-.11-.52-.18-.34-.1-.72-.22-1.12-.3-1.58-.34-3.27-.46-4.98-.43-.38,0-.75.02-1.12.03-2.08.14-1.31.95-.86,1.29,0,.01.03.02.05.02.06.06.12.09.17.14.04.01.07.05.08.08.06.05.06.1.07.15,0,.03-.02.08-.07.1-.07.13-.33.23-.78.33-.09,0-.17.02-.26.03-.25.06-.56.09-.91.11-.65.03-1.45,0-2.4-.09-1.45-.21-3.28-.58-5.35-1.41-1.54-.62-3.2-1.47-4.93-2.59-.29-.2-.58-.39-.87-.58-.27-.2-.58-.41-.87-.63-.36-.26-.7-.51-1.05-.79-.31-.24-.61-.51-.92-.77-.04-.02-.09-.05-.11-.09-.28-.22-.54-.46-.81-.7-.37-.33-.76-.68-1.12-1.03-.44-.43-.9-.89-1.33-1.35-2.92-3-5.75-6.67-8.42-10.93-2.13-3.45-4.19-7.24-6.09-11.35-.48-1.05-.96-2.1-1.44-3.18-.24-.53-.47-1.05-.7-1.6-.22-.53-.46-1.07-.68-1.62-.12-.28-.22-.55-.34-.8-.12-.3-.26-.58-.38-.87-.1-.24-.21-.45-.32-.69-.11-.25-.23-.5-.36-.76-.49-1.05-1-2.1-1.49-3.16-.27-.5-.55-1.04-.84-1.54-.27-.52-.56-1.04-.87-1.56-.39-.72-.82-1.44-1.26-2.14-.31-.51-.61-1-.95-1.52-.21-.35-.43-.7-.67-1.04-.09-.16-.18-.3-.31-.46-.32-.49-.65-.98-1-1.49-.04-.05-.07-.1-.11-.16-.64-.93-1.32-1.84-2.03-2.74-.63-.84-1.29-1.67-1.98-2.49-.13-.18-.29-.35-.43-.53-.38-.47-.79-.92-1.18-1.36-.27-.31-.56-.63-.85-.94-.16-.18-.32-.37-.5-.54-.45-.49-.9-.99-1.38-1.47-.96-.98-1.93-1.93-2.95-2.87-.51-.48-1.02-.92-1.56-1.39-.78-.68-1.59-1.35-2.4-2.01l-.06-.05c-.46-.38-.94-.76-1.41-1.1-.16-.13-.29-.24-.45-.35-.21-.16-.4-.31-.61-.46-.31-.23-.61-.46-.94-.68-.83-.6-1.71-1.19-2.58-1.77-1.2-.78-2.44-1.53-3.71-2.25-.64-.35-1.27-.7-1.92-1.03s-1.3-.66-1.97-.97c-.67-.32-1.34-.62-2-.9-.47-.2-.92-.4-1.41-.58t-.03-.02s-.12-.04-.17-.06c-.34-.14-.67-.26-1.01-.38-.38-.15-.76-.29-1.15-.41-.27-.11-.54-.2-.82-.27-.35-.12-.72-.23-1.07-.33t-.04-.01c-.3-.1-.58-.19-.89-.26-.36-.1-.74-.21-1.09-.28-.18-.07-.34-.11-.52-.14-.17-.05-.35-.09-.51-.12-.65-.16-1.31-.29-1.95-.41h-.04c-.06-.01-.09-.02-.13-.04-.59-.12-1.2-.21-1.8-.28-.49-.05-.96-.1-1.44-.17-.24-.04-.5-.07-.74-.11h-.31c-.36-.04-.73-.05-1.09-.05-.25,0-.49.01-.76,0-.16,0-.34,0-.52,0-.19-.02-.36-.02-.55-.02-.36,0-.72-.03-1.08-.01l-1.04.1-.39.02h-.02s-.65.04-.65.04c-.33.06-.7.09-1.03.17-.34.03-.67.09-.99.16-.37.06-.73.14-1.09.22-1.38.29-2.78.67-4.15,1.18-.34.11-.68.25-1.02.39-.14.06-.28.1-.39.16-.03.04-.07.05-.1.06-.26.1-.51.18-.77.31-.26.11-.51.2-.75.32-.68.3-1.32.63-1.97.96-3.96,2.1-7.69,4.93-11.04,8.22-.42.41-.85.82-1.24,1.26-.36.35-.71.72-1.02,1.09-.49.5-.96,1.04-1.41,1.59-.28.33-.57.67-.85,1.01-.47.57-.94,1.17-1.38,1.76-.39.49-.73.97-1.08,1.46-.35.47-.69.94-1.01,1.43-.34.52-.71,1.06-1.05,1.61-.33.53-.66,1.05-.97,1.57-.33.52-.66,1.06-.95,1.6-.31.54-.62,1.08-.92,1.63-.3.55-.59,1.1-.89,1.66-.47.91-.92,1.83-1.37,2.78-.01,0-.01.03-.01.05l-.09.2c-.14.24-.24.5-.36.75-.03.07-.05.13-.08.2-.03.05-.05.08-.07.13-.43.9-.84,1.84-1.22,2.78-1.31,3.15-2.45,6.38-3.47,9.68-.58,2.05-1.08,4.12-1.48,6.22,0,0-.01.05,0,.07-.02.08-.05.18-.05.26-.03.15-.05.29-.08.43-.17.8-.31,1.6-.42,2.42h0c-.18,1.08-.31,2.11-.43,3.17-.03.27-.05.54-.08.8,0,.17-.04.34-.03.5-.11.83-.19,1.67-.22,2.5v.02c-.09.98-.13,1.98-.15,2.98-.07,2.02-.07,4.05,0,6.07.03.93.09,1.87.15,2.81.12,1.86.29,3.72.54,5.56.05.45.1.91.17,1.34.06.46.14.94.21,1.4.18,1.2.39,2.42.63,3.61.02.08.04.18.06.26.02.09.02.18.07.26v.07c.01.07.03.14.04.21.11.54.22,1.08.35,1.6.17.7.33,1.43.5,2.11.05.14.09.26.12.4.18.75.4,1.49.61,2.22.16.57.33,1.14.53,1.69,0,.02.02.04.03.06.13.45.27.88.43,1.31.21.62.43,1.25.67,1.85.21.58.45,1.15.7,1.72.02.07.03.12.07.19.28.7.6,1.39.93,2.06.31.7.66,1.37,1.02,2.04.25.47.52.96.8,1.41.15.29.33.56.49.83.13.2.26.4.39.61.18.3.38.59.6.88.2.29.4.56.61.83.22.27.43.54.65.77.43.5.85.95,1.28,1.33.88.86,1.73,1.33,2.43,1.68.66.29,1.12.33,1.68.31h.2c.17-.03.3-.03.53-.06l.91-.29c.61-.22,1.22-.36,1.85-.6.65-.28,1.27-.56,1.92-.84.61-.25,1.21-.5,1.84-.83.04,0,.09-.05.16-.05,1.92-.96,3.81-1.9,5.7-2.83.17-.08.32-.17.48-.24.27-.13.53-.26.8-.4l1.09-.53c.55-.26,1.1-.53,1.64-.79l.05.05c15.35-7.87,32.94-11.14,50.02-11.09,13.53-.07,27.13-.09,40.53-2.07,3.02-.58,6.3-.89,8.92-2.6-.75.76-1.76,1.15-2.72,1.57-6.88,2.67-14.23,3.81-21.47,5.02-8.31,1.29-16.67,2.23-25.04,3.05-12.17,1.29-24,4.47-35,9.66-2.49,1.18-4.91,2.47-7.25,3.89l.15.14c.32.32.63.59.94.88.3.28.63.56.96.83,2.2,1.75,4.65,3.31,7.23,4.35,2.61,1.04,5.36,1.54,8.12,1.46.35,0,.7-.02,1.05-.06.7-.06,1.41-.16,2.12-.3.35-.07.69-.16,1.07-.24.69-.17,1.4-.39,2.1-.64.71-.23,1.41-.52,2.1-.82.21-.09.42-.18.64-.29.31-.16.6-.32.91-.47.29-.11.55-.25.79-.39.12-.07.25-.16.38-.23.14-.06.27-.14.38-.22.55-.33,1.1-.66,1.65-.98.54-.33,1.09-.65,1.64-.97,2.28-1.42,4.65-2.64,6.96-3.83,4.7-2.27,9.35-4.21,13.92-5.69.27-.09.56-.19.83-.26.05-.02.09-.04.13-.04.63-.2,1.24-.39,1.85-.56.18-.06.36-.11.54-.15.13-.04.24-.07.37-.11.88-.28,1.78-.51,2.66-.74,1.04-.28,2.07-.53,3.1-.76,1.01-.23,2.02-.46,3.01-.67,1.07-.21,2.15-.41,3.19-.59.77-.14,1.53-.26,2.28-.38.12-.01.21-.04.32-.05.93-.15,1.85-.29,2.75-.4.44-.05.9-.1,1.33-.15.04,0,.08,0,.12-.01.12,0,.32-.03.59-.05,3.3-.33,17.31-1.57,23.58-.05.4.17.69.33.87.48.05.02.09.06.12.08.04.05.06.07.08.1.02.05.02.07.03.1v.03c.04.24-.25.5-.85.78-.02,0-.06.02-.08.04,0,0-3.98,1.7.32,2.24.31.04.62.06.92.08.4.03.77.04,1.14.06h.52c.3.03.6.02.91,0h.02c.28,0,.57-.02.85-.04h.11c.08-.01.14-.01.2-.03.22,0,.42-.03.62-.05.3-.02.59-.07.87-.1h.02c.75-.14,1.46-.29,2.15-.49.26-.08.51-.15.76-.26.18-.05.33-.11.47-.19.22-.07.4-.16.57-.25.35-.14.69-.32,1.01-.51.87-.51,1.64-1.08,2.32-1.69.44-.41.86-.82,1.22-1.25.37-.43.68-.88.96-1.31.14-.22.27-.45.39-.66.48-.86.93-1.88,1.25-3.05.15-.58.31-1.23.36-1.83.09-.49.12-.95.11-1.45ZM1035.05,161.95c-.23.33-.53.71-.9,1.11-.25.27-.53.56-.82.86-1.05,1.06-2.41,2.35-3.94,3.94-.18.19-.35.36-.54.56-1.26,1.29-2.61,2.8-3.97,4.5-2.44,3.09-4.98,6.86-7.25,11.28-.5.98-1,2-1.46,3.03-.94,2.1-1.77,4.2-2.53,6.28-.38,1.04-.73,2.07-1.08,3.09-.5,1.53-.97,3.02-1.4,4.48-3.3,11.19-4.52,19.95-6.62,19.83-1.23-.02-2.3-4.3-2.39-11.46-.05-7.11,1.36-17.35,5.87-27.53,2.44-5.42,5.58-9.96,8.86-13.48.38-.41.77-.8,1.16-1.19,1.36-1.36,2.73-2.53,4.07-3.5.57-.41,1.14-.8,1.69-1.15h0c.37-.24.73-.45,1.09-.66.18-.1.37-.19.54-.29h0c.37-.21.74-.4,1.11-.59h0c.3-.14.6-.28.89-.41.77-.32,1.51-.59,2.17-.79h0s0,0,0,0c3.45-1.03,5.72-.51,5.87.58.08.43-.1.92-.48,1.49ZM1077.94,185.07c-.36.57-.85.82-1.38.82-.54,0-1.13-.21-1.63-.44-.49-.22-1.08-.49-1.54-.76-1.05-.53-2.27-1.34-3.75-2.54-2.95-2.41-5.48-5.4-4.68-7.39.4-.97,1.65-1.45,3.39-1.27,1.75.19,3.94,1.01,6.07,2.75,2.1,1.7,3.66,4.12,3.93,6.28.11,1.1,0,1.96-.42,2.54Z"/>
        <path id="Beak_Highlight" data-name="Beak Highlight" class="cls-9" d="M1035.05,161.95c-.23.33-.53.71-.9,1.11-.25.27-.53.56-.82.86-1.05,1.06-2.41,2.35-3.94,3.94-.18.19-.35.36-.54.56-1.26,1.29-2.61,2.8-3.97,4.5-2.44,3.09-4.98,6.86-7.25,11.28-.5.98-1,2-1.46,3.03-.94,2.1-1.77,4.2-2.53,6.28-.38,1.04-.73,2.07-1.08,3.09-.5,1.53-.97,3.02-1.4,4.48-3.3,11.19-4.52,19.95-6.62,19.83-1.23-.02-2.3-4.3-2.39-11.46-.05-7.11,1.36-17.35,5.87-27.53,2.44-5.42,5.58-9.96,8.86-13.48.38-.41.77-.8,1.16-1.19,1.36-1.36,2.73-2.53,4.07-3.5.57-.41,1.14-.8,1.69-1.15h0c.37-.24.73-.45,1.09-.66.18-.1.37-.19.54-.29h0c.37-.21.74-.4,1.11-.59h0c.3-.14.6-.28.89-.41.77-.32,1.51-.59,2.17-.79h0s0,0,0,0c3.45-1.03,5.72-.51,5.87.58.08.43-.1.92-.48,1.49Z"/>
      </g>
    </g>
    <g>
      <path class="cls-6" d="M761.47,195.88l-22.29,7.59-7.59-22.29,22.29-7.59,7.59,22.29ZM741.46,198.83l15.35-5.23-5.23-15.35-15.35,5.23,5.23,15.35Z"/>
      <rect class="cls-6" x="773.29" y="153.69" width="113.07" height="12.94" transform="translate(-7.32 276.11) rotate(-18.81)"/>
      <path class="cls-6" d="M773.63,231.59l-22.29,7.59-7.59-22.29,22.29-7.59,7.59,22.29ZM753.62,234.53l15.35-5.23-5.23-15.35-15.35,5.23,5.23,15.35Z"/>
      <rect class="cls-6" x="785.45" y="189.39" width="113.07" height="12.94" transform="translate(-18.18 281.93) rotate(-18.81)"/>
      <path class="cls-6" d="M785.01,265l-22.29,7.59-7.59-22.29,22.29-7.59,7.59,22.29ZM765,267.94l15.35-5.23-5.23-15.35-15.35,5.23,5.23,15.35Z"/>
      <rect class="cls-6" x="796.84" y="222.8" width="113.07" height="12.94" transform="translate(-28.35 287.39) rotate(-18.81)"/>
    </g>
    <text class="cls-18" transform="translate(764.85 324.17) rotate(-15.55)"><tspan class="cls-22" x="0" y="0"> </tspan><tspan class="cls-1" x="13.57" y="0"></tspan></text>
    <g>
      <g>
        <path class="cls-3" d="M673.46,912.58c-.49-.11-.79-.64-.71-1.16l1.42-10.31c.23-1.54,1.69-2.81,3.22-2.81h9.82c1.54,0,2.62,1.27,2.4,2.81l-.38,2.89c-.11.56-.52,1.09-1.05,1.31l-4.35,1.69c-.41.19-.82-.11-.79-.56l.41-2.74c0-.11-.08-.19-.19-.19h-3.45c-.11,0-.19.07-.19.19l-.64,4.31c0,.11.08.19.19.22l8.39,2.06c.49.11.82.64.75,1.16l-1.46,10.27c-.23,1.54-1.65,2.81-3.19,2.81h-10.04c-1.54,0-2.66-1.27-2.44-2.81l.41-2.89c.08-.56.49-1.09,1.05-1.31l4.31-1.69c.45-.19.86.11.79.56l-.37,2.74c-.04.11.04.19.15.19h3.67c.11,0,.19-.08.22-.19l.6-4.23c0-.11-.08-.19-.19-.23l-8.39-2.1Z"/>
        <path class="cls-3" d="M698.02,903.51c-.52,0-.86-.41-.79-.94l.45-3.33c.08-.52.56-.94,1.09-.94h15.14c.52,0,.86.41.79.94l-.45,3.33c-.08.52-.56.94-1.09.94h-4.46c-.11,0-.19.07-.19.19l-2.81,19.9c-.08.52-.53.94-1.05.94h-3.93c-.53,0-.9-.41-.82-.94l2.81-19.9c0-.11-.08-.19-.19-.19h-4.5Z"/>
        <path class="cls-3" d="M721.85,924.54c-1.54,0-2.66-1.27-2.44-2.81l3.15-22.49c.07-.52.56-.94,1.09-.94h3.94c.52,0,.86.41.79.94l-2.77,19.9c-.04.11.04.19.15.19h4.5c.11,0,.19-.08.23-.19l2.77-19.9c.08-.52.56-.94,1.09-.94h3.94c.52,0,.86.41.79.94l-3.15,22.49c-.22,1.54-1.65,2.81-3.19,2.81h-10.87Z"/>
        <path class="cls-3" d="M746.69,924.54c-.52,0-.9-.41-.83-.94l3.41-24.36c.07-.52.56-.94,1.09-.94h12.85c1.54,0,2.62,1.27,2.4,2.81l-2.89,20.61c-.22,1.54-1.65,2.81-3.19,2.81h-12.85ZM754.67,903.51c-.11,0-.19.07-.19.19l-2.17,15.44c-.04.11.04.19.15.19h4.61c.11,0,.19-.08.22-.19l2.17-15.44c0-.11-.08-.19-.19-.19h-4.61Z"/>
        <path class="cls-3" d="M773.56,924.54c-.53,0-.9-.41-.82-.94l3.41-24.36c.07-.52.56-.94,1.09-.94h12.78c.53,0,.86.41.79.94l-.45,3.33c-.08.52-.56.94-1.09.94h-7.72c-.11,0-.19.07-.19.19l-.71,5.1c-.04.11.04.19.15.19h5.4c.52,0,.86.41.79.94l-.41,2.96c-.08.53-.52.94-1.05.94h-5.4c-.11,0-.22.07-.22.19l-.71,5.13c-.04.11.04.19.15.19h7.72c.52,0,.86.41.82.94l-.49,3.34c-.08.52-.52.94-1.05.94h-12.78Z"/>
        <path class="cls-3" d="M809.77,924.54c-.56,0-1.05-.34-1.2-.86l-4.16-14.28c0-.08-.07-.04-.07,0l-1.99,14.2c-.08.52-.53.94-1.05.94h-3.93c-.53,0-.9-.41-.82-.94l3.41-24.36c.07-.52.56-.94,1.09-.94h4.01c.56,0,1.05.34,1.2.86l4.12,14.32c.04.08.08.04.08,0l1.99-14.24c.08-.52.56-.94,1.09-.94h3.94c.52,0,.86.41.79.94l-3.41,24.36c-.07.52-.52.94-1.05.94h-4.01Z"/>
        <path class="cls-3" d="M826.45,903.51c-.53,0-.86-.41-.79-.94l.45-3.33c.08-.52.56-.94,1.09-.94h15.14c.52,0,.86.41.79.94l-.45,3.33c-.08.52-.56.94-1.09.94h-4.46c-.11,0-.19.07-.19.19l-2.81,19.9c-.08.52-.53.94-1.05.94h-3.93c-.52,0-.9-.41-.83-.94l2.81-19.9c0-.11-.08-.19-.19-.19h-4.5Z"/>
        <path class="cls-3" d="M864.67,924.54c-.52,0-.9-.41-.83-.94l3.41-24.36c.07-.52.56-.94,1.09-.94h3.93c.52,0,.86.41.79.94l-2.77,19.9c-.04.11.04.19.15.19h7.72c.52,0,.86.41.82.94l-.49,3.34c-.08.52-.52.94-1.05.94h-12.78Z"/>
        <path class="cls-3" d="M887.08,924.54c-.53,0-.9-.41-.82-.94l3.41-24.36c.07-.52.56-.94,1.09-.94h12.78c.53,0,.86.41.79.94l-.45,3.33c-.08.52-.56.94-1.09.94h-7.72c-.11,0-.19.07-.19.19l-.71,5.1c-.04.11.04.19.15.19h5.4c.52,0,.86.41.79.94l-.41,2.96c-.08.53-.52.94-1.05.94h-5.4c-.11,0-.22.07-.22.19l-.71,5.13c-.04.11.04.19.15.19h7.72c.52,0,.86.41.82.94l-.49,3.34c-.08.52-.52.94-1.05.94h-12.78Z"/>
        <path class="cls-3" d="M923.93,898.3c.53,0,.94.38,1.05.9l2.47,24.43c.04.45-.34.9-.83.9h-4.31c-.52,0-.97-.38-1.01-.94l-.19-3.94c-.04-.11-.11-.19-.22-.19h-5.02c-.11,0-.19.08-.22.19l-1.27,3.94c-.19.52-.71.94-1.24.94h-4.31c-.49,0-.79-.45-.6-.9l9.37-24.43c.19-.53.75-.9,1.27-.9h5.06ZM920.41,905.35s-.04-.04-.08,0l-3.07,9.48c-.08.11.04.19.11.19h3.33c.11,0,.19-.08.19-.19l-.49-9.48Z"/>
        <path class="cls-3" d="M936.42,924.54c-.52,0-.9-.41-.83-.94l3.41-24.36c.07-.52.56-.94,1.09-.94h12.85c1.54,0,2.62,1.27,2.4,2.81l-2.89,20.61c-.22,1.54-1.65,2.81-3.19,2.81h-12.85ZM944.4,903.51c-.11,0-.19.07-.19.19l-2.17,15.44c-.04.11.04.19.15.19h4.61c.11,0,.19-.08.22-.19l2.17-15.44c0-.11-.08-.19-.19-.19h-4.61Z"/>
        <path class="cls-3" d="M963.29,924.54c-.53,0-.9-.41-.82-.94l3.41-24.36c.07-.52.56-.94,1.09-.94h12.78c.53,0,.86.41.79.94l-.45,3.33c-.08.52-.56.94-1.09.94h-7.72c-.11,0-.19.07-.19.19l-.71,5.1c-.04.11.04.19.15.19h5.4c.52,0,.86.41.79.94l-.41,2.96c-.08.53-.52.94-1.05.94h-5.4c-.11,0-.22.07-.22.19l-.71,5.13c-.04.11.04.19.15.19h7.72c.52,0,.86.41.82.94l-.49,3.34c-.08.52-.52.94-1.05.94h-12.78Z"/>
        <path class="cls-3" d="M987.1,924.54c-.53,0-.9-.41-.82-.94l3.41-24.36c.07-.52.56-.94,1.09-.94h13.08c1.54,0,2.62,1.27,2.4,2.81l-1.54,10.98c-.22,1.54-1.65,2.81-3.19,2.81h-.67c-.07,0-.19.07-.15.15l3.49,8.66c.15.37-.19.82-.6.82h-4.2c-.56,0-1.09-.34-1.27-.82l-3.49-8.66c-.04-.08-.11-.15-.22-.15h-.9c-.11,0-.22.07-.22.19l-1.2,8.51c-.08.52-.53.94-1.05.94h-3.93ZM995.08,903.51c-.11,0-.19.07-.19.19l-.82,5.81c-.04.11.04.19.15.19h5.02c.11,0,.19-.07.23-.19l.82-5.81c0-.11-.08-.19-.19-.19h-5.02Z"/>
        <path class="cls-3" d="M1029.55,924.54c-.52,0-.9-.41-.83-.94l3.41-24.36c.07-.52.56-.94,1.09-.94h12.78c.53,0,.86.41.79.94l-.45,3.33c-.08.52-.56.94-1.09.94h-7.72c-.11,0-.19.07-.19.19l-.71,5.1c-.04.11.04.19.15.19h5.4c.52,0,.86.41.79.94l-.41,2.96c-.08.53-.52.94-1.05.94h-5.4c-.11,0-.22.07-.22.19l-.71,5.13c-.04.11.04.19.15.19h7.72c.52,0,.86.41.82.94l-.49,3.34c-.08.52-.52.94-1.05.94h-12.78Z"/>
        <path class="cls-3" d="M1053.36,924.54c-.52,0-.9-.41-.83-.94l3.41-24.36c.07-.52.56-.94,1.09-.94h3.93c.52,0,.86.41.79.94l-2.77,19.9c-.04.11.04.19.15.19h7.72c.52,0,.86.41.82.94l-.49,3.34c-.08.52-.52.94-1.05.94h-12.78Z"/>
        <path class="cls-3" d="M1075.77,924.54c-.53,0-.9-.41-.82-.94l3.41-24.36c.07-.52.56-.94,1.09-.94h12.78c.53,0,.86.41.79.94l-.45,3.33c-.08.52-.56.94-1.09.94h-7.72c-.11,0-.19.07-.19.19l-.71,5.1c-.04.11.04.19.15.19h5.4c.52,0,.86.41.79.94l-.41,2.96c-.08.53-.52.94-1.05.94h-5.4c-.11,0-.22.07-.22.19l-.71,5.13c-.04.11.04.19.15.19h7.72c.52,0,.86.41.82.94l-.49,3.34c-.08.52-.52.94-1.05.94h-12.78Z"/>
        <path class="cls-3" d="M1101.38,924.54c-1.54,0-2.66-1.27-2.44-2.81l2.89-20.61c.22-1.54,1.69-2.81,3.22-2.81h10.57c1.54,0,2.62,1.27,2.4,2.81l-.6,4.38c-.08.56-.49,1.09-1.05,1.31l-4.31,1.69c-.45.19-.86-.11-.79-.56l.6-4.24c0-.11-.08-.19-.19-.19h-4.2c-.11,0-.19.07-.19.19l-2.17,15.44c-.04.11.04.19.15.19h4.2c.11,0,.19-.08.22-.19l.6-4.23c.04-.45.53-.75.94-.56l3.82,1.69c.52.22.79.75.67,1.31l-.6,4.38c-.22,1.54-1.65,2.81-3.19,2.81h-10.57Z"/>
        <path class="cls-3" d="M1126.16,903.51c-.53,0-.86-.41-.79-.94l.45-3.33c.08-.52.56-.94,1.09-.94h15.14c.52,0,.86.41.79.94l-.45,3.33c-.08.52-.56.94-1.09.94h-4.46c-.11,0-.19.07-.19.19l-2.81,19.9c-.08.52-.53.94-1.05.94h-3.93c-.52,0-.9-.41-.83-.94l2.81-19.9c0-.11-.08-.19-.19-.19h-4.5Z"/>
        <path class="cls-3" d="M1148.11,924.54c-.52,0-.9-.41-.83-.94l3.41-24.36c.07-.52.56-.94,1.09-.94h3.93c.52,0,.86.41.79.94l-3.41,24.36c-.08.52-.53.94-1.05.94h-3.93Z"/>
        <path class="cls-3" d="M1166.03,924.54c-1.54,0-2.66-1.27-2.44-2.81l2.89-20.61c.22-1.54,1.69-2.81,3.22-2.81h11.24c1.54,0,2.62,1.27,2.4,2.81l-2.88,20.61c-.23,1.54-1.65,2.81-3.19,2.81h-11.24ZM1172.14,903.51c-.11,0-.19.07-.19.19l-2.17,15.44c-.04.11.04.19.15.19h4.87c.11,0,.19-.08.22-.19l2.17-15.44c0-.11-.08-.19-.19-.19h-4.87Z"/>
        <path class="cls-3" d="M1203.69,924.54c-.56,0-1.05-.34-1.2-.86l-4.16-14.28c0-.08-.07-.04-.07,0l-1.99,14.2c-.08.52-.53.94-1.05.94h-3.93c-.53,0-.9-.41-.82-.94l3.41-24.36c.07-.52.56-.94,1.09-.94h4.01c.56,0,1.05.34,1.2.86l4.12,14.32c.04.08.08.04.08,0l1.99-14.24c.08-.52.56-.94,1.09-.94h3.94c.52,0,.86.41.79.94l-3.41,24.36c-.07.52-.52.94-1.05.94h-4.01Z"/>
        <path class="cls-3" d="M1221.2,912.58c-.49-.11-.79-.64-.71-1.16l1.42-10.31c.23-1.54,1.69-2.81,3.22-2.81h9.82c1.54,0,2.62,1.27,2.4,2.81l-.38,2.89c-.11.56-.52,1.09-1.05,1.31l-4.35,1.69c-.41.19-.82-.11-.79-.56l.41-2.74c0-.11-.08-.19-.19-.19h-3.45c-.11,0-.19.07-.19.19l-.64,4.31c0,.11.08.19.19.22l8.39,2.06c.49.11.82.64.75,1.16l-1.46,10.27c-.23,1.54-1.65,2.81-3.19,2.81h-10.04c-1.54,0-2.66-1.27-2.44-2.81l.41-2.89c.08-.56.49-1.09,1.05-1.31l4.31-1.69c.45-.19.86.11.79.56l-.37,2.74c-.04.11.04.19.15.19h3.67c.11,0,.19-.08.22-.19l.6-4.23c0-.11-.08-.19-.19-.23l-8.39-2.1Z"/>
      </g>
      <line class="cls-13" x1="660.64" y1="879.51" x2="1257.72" y2="879.51"/>
      <line class="cls-13" x1="660.64" y1="944.3" x2="1257.72" y2="944.3"/>
    </g>
    <text class="cls-2" transform="translate(1881.99 224.24) rotate(-90)"><tspan class="cls-21" x="0" y="0">2</tspan><tspan class="cls-19" x="40.09" y="0">0</tspan><tspan class="cls-20" x="78.71" y="0">2</tspan><tspan x="117.07" y="0">4</tspan></text>
    <g>
      <path class="cls-6" d="M750.75,978.05c1.07,0,1.91.76,2.14,1.83l5.04,49.73c.08.92-.69,1.83-1.68,1.83h-8.77c-1.07,0-1.98-.76-2.06-1.91l-.38-8.01c-.08-.23-.23-.38-.46-.38h-10.22c-.23,0-.38.15-.46.38l-2.59,8.01c-.38,1.07-1.45,1.91-2.52,1.91h-8.77c-.99,0-1.6-.92-1.22-1.83l19.07-49.73c.38-1.07,1.53-1.83,2.59-1.83h10.3ZM743.58,992.39c.08-.08-.08-.08-.15,0l-6.25,19.3c-.15.23.08.38.23.38h6.79c.23,0,.38-.15.38-.38l-.99-19.3Z"/>
      <path class="cls-6" d="M775.55,1031.44c-1.07,0-1.83-.84-1.68-1.91l6.94-49.58c.15-1.07,1.14-1.91,2.21-1.91h26.39c3.13,0,5.34,2.59,4.88,5.72l-3.13,22.43c-.46,3.13-3.43,5.72-6.56,5.72h-16.1c-.23,0-.38.15-.38.38l-2.44,17.24c-.15,1.07-1.07,1.91-2.14,1.91h-8.01ZM791.8,988.65c-.23,0-.38.15-.38.38l-1.68,11.9c-.08.23.08.38.31.38h9.99c.23,0,.38-.15.46-.38l1.68-11.9c0-.23-.15-.38-.38-.38h-9.99Z"/>
      <path class="cls-6" d="M827.63,1031.44c-1.07,0-1.83-.84-1.68-1.91l6.94-49.58c.15-1.07,1.14-1.91,2.21-1.91h26.62c3.13,0,5.34,2.59,4.88,5.72l-3.13,22.35c-.46,3.13-3.36,5.72-6.48,5.72h-1.37c-.15,0-.38.15-.3.3l7.09,17.62c.3.76-.38,1.68-1.22,1.68h-8.54c-1.14,0-2.21-.69-2.59-1.68l-7.09-17.62c-.08-.15-.23-.3-.46-.3h-1.83c-.23,0-.46.15-.46.38l-2.44,17.32c-.15,1.07-1.07,1.91-2.14,1.91h-8.01ZM843.88,988.65c-.23,0-.38.15-.38.38l-1.68,11.82c-.08.23.08.38.31.38h10.22c.23,0,.38-.15.46-.38l1.68-11.82c0-.23-.15-.38-.38-.38h-10.22Z"/>
      <path class="cls-6" d="M882.07,1031.44c-1.07,0-1.83-.84-1.68-1.91l6.94-49.58c.15-1.07,1.14-1.91,2.21-1.91h8.01c1.07,0,1.75.84,1.6,1.91l-6.94,49.58c-.15,1.07-1.07,1.91-2.14,1.91h-8.01Z"/>
      <path class="cls-6" d="M914.3,1031.44c-1.07,0-1.83-.84-1.68-1.91l6.94-49.58c.15-1.07,1.14-1.91,2.21-1.91h8.01c1.07,0,1.75.84,1.6,1.91l-5.64,40.5c-.08.23.08.38.31.38h15.71c1.07,0,1.75.84,1.68,1.91l-.99,6.79c-.15,1.07-1.07,1.91-2.14,1.91h-26.01Z"/>
      <path class="cls-6" d="M996.46,988.65c-.92,0-1.37-.92-.84-1.75l3.89-7.09c.61-1.07,1.75-1.75,2.9-1.75h12.59c1.07,0,1.75.84,1.6,1.91l-5.64,40.5c-.08.23.08.38.3.38h6.1c1.07,0,1.75.84,1.68,1.91l-.99,6.79c-.15,1.07-1.07,1.91-2.14,1.91h-24.79c-1.07,0-1.83-.84-1.68-1.91l.99-6.79c.08-1.07,1.07-1.91,2.14-1.91h6.1c.23,0,.38-.15.46-.38l4.42-31.43c0-.23-.15-.38-.38-.38h-6.71Z"/>
      <path class="cls-6" d="M1039.96,983.77c.46-3.13,3.43-5.72,6.56-5.72h19.38c3.13,0,5.34,2.59,4.88,5.72l-2.75,19.76c-.46,3.28-3.2,6.18-6.64,6.87l-13.27,2.59c-.31.08-.46.23-.46.46l-.99,7.02c-.08.23.08.38.3.38h17.01c1.07,0,1.75.84,1.68,1.91l-.99,6.79c-.15,1.07-1.07,1.91-2.14,1.91h-27.31c-1.07,0-1.83-.84-1.68-1.91l2.82-19.83c.46-3.28,3.05-6.1,6.56-6.79l13.35-2.59c.23-.08.38-.23.46-.46l1.53-10.83c0-.23-.15-.38-.38-.38h-6.41c-.23,0-.38.15-.38.38l-.92,6.33c-.15.92-1.14,1.53-1.91,1.14l-7.86-3.43c-.99-.46-1.53-1.53-1.37-2.67l.92-6.64Z"/>
      <path class="cls-6" d="M1087.52,1010.24c-1.07,0-1.83-.84-1.68-1.91l.84-5.72c.15-1.07,1.07-1.91,2.14-1.91h18c1.07,0,1.83.84,1.68,1.91l-.84,5.72c-.15,1.07-1.07,1.91-2.14,1.91h-18Z"/>
      <path class="cls-6" d="M1125.82,988.65c-.92,0-1.37-.92-.84-1.75l3.89-7.09c.61-1.07,1.75-1.75,2.9-1.75h12.59c1.07,0,1.75.84,1.6,1.91l-5.64,40.5c-.08.23.08.38.3.38h6.1c1.07,0,1.75.84,1.68,1.91l-.99,6.79c-.15,1.07-1.07,1.91-2.14,1.91h-24.79c-1.07,0-1.83-.84-1.68-1.91l.99-6.79c.08-1.07,1.07-1.91,2.14-1.91h6.1c.23,0,.38-.15.46-.38l4.42-31.43c0-.23-.15-.38-.38-.38h-6.71Z"/>
      <path class="cls-6" d="M1168.92,1031.44c-3.13,0-5.42-2.59-4.96-5.72l5.87-41.95c.46-3.13,3.43-5.72,6.56-5.72h20.21c2.97,0,5.03,2.37,4.58,5.34l-.61,4.27c-.15,1.14-.99,2.21-2.06,2.67l-8.85,3.89c-.84.3-1.68-.23-1.6-1.14l.61-4.04c0-.23-.15-.38-.38-.38h-6.94c-.23,0-.38.15-.38.38l-1.22,8.62c-.08.23.08.38.3.38h13.35c3.13,0,5.34,2.59,4.96,5.72l-3.13,21.97c-.46,3.13-3.36,5.72-6.48,5.72h-19.83ZM1178.61,1008.63c-.23,0-.46.15-.46.38l-1.6,11.44c-.08.23.08.38.31.38h7.63c.23,0,.38-.15.46-.38l1.6-11.44c0-.23-.08-.38-.3-.38h-7.63Z"/>
    </g>
  </g>
</svg>