<?xml version="1.0" encoding="UTF-8"?>
<svg id="Layer_2" data-name="Layer 2" xmlns="http://www.w3.org/2000/svg" viewBox="0 0 630.91 229.86">
  <defs>
    <style>
      .cls-1 {
        fill: #fff;
        stroke-width: 0px;
      }
    </style>
  </defs>
  <g id="Layer_1-2" data-name="Layer 1">
    <g>
      <path class="cls-1" d="M119.51,131.1c1.91-32.41-15.59-52.62-46.16-50.65C34.1,82.97,2.73,115.99.14,159.93c-1.9,32.22,15.6,52.44,46.17,50.47,39.43-2.54,70.62-35.55,73.21-79.31ZM35.68,152.9c1.23-20.87,14.3-37.03,30.81-38.28,11.82-.94,18.36,8.49,17.49,23.31-1.25,21.24-14.31,37.22-30.12,38.23-12.33.79-19.06-8.44-18.18-23.27Z"/>
      <polygon class="cls-1" points="251.38 72.45 223.23 138.83 218.2 74.59 191.45 76.31 160.1 144.17 158.79 78.41 123.53 80.68 130.39 201.89 162.53 199.82 192.28 138.45 197.1 197.6 229.23 195.53 286.64 70.18 251.38 72.45"/>
      <polygon class="cls-1" points="385.48 63.82 352.48 65.95 340.37 124.55 322.6 67.87 289.6 69.99 263.98 193.3 296.98 191.17 309.07 132.94 326.86 189.25 359.87 187.13 385.48 63.82"/>
      <path class="cls-1" d="M171.6,221c-.16,4.91,2.66,7.95,7.38,7.65,1.98-.13,4.61-1.26,6.7-2.8l-.86-2.48c-1.66,1.33-3.74,2.24-5.26,2.34-3.2.21-5.17-1.88-5.1-5.19.06-4.27,2.98-7.44,6.91-7.69,1.5-.1,3.36.58,4.69,1.7l1.58-2.61c-1.66-1.33-4.06-2.14-6.04-2.01-5.66.36-9.86,4.92-10,11.09Z"/>
      <polygon class="cls-1" points="202 216.35 194.77 216.82 195.82 209.4 192.95 209.58 190.42 227.51 193.29 227.33 194.36 219.69 201.59 219.23 200.52 226.86 203.36 226.68 205.89 208.75 203.05 208.93 202 216.35"/>
      <path class="cls-1" d="M219.58,207.49c-5.58.36-9.73,5.1-9.67,11.44.04,4.61,2.68,7.53,7.02,7.25,5.58-.36,9.73-5.13,9.67-11.44-.04-4.63-2.73-7.52-7.02-7.25ZM217.38,223.2c-2.74.18-4.41-1.77-4.44-4.88-.04-4.29,2.65-7.58,6.23-7.86,2.69-.23,4.33,1.75,4.36,4.86.04,4.37-2.62,7.65-6.15,7.88Z"/>
      <path class="cls-1" d="M240.61,206.14c-5.58.36-9.73,5.1-9.67,11.44.04,4.61,2.68,7.53,7.02,7.25,5.58-.36,9.73-5.13,9.67-11.44-.04-4.63-2.73-7.52-7.02-7.25ZM238.42,221.84c-2.74.18-4.41-1.77-4.44-4.88-.04-4.29,2.65-7.58,6.23-7.86,2.69-.23,4.33,1.75,4.36,4.86.04,4.37-2.62,7.65-6.15,7.88Z"/>
      <path class="cls-1" d="M259.01,207.73c1.27-.08,2.82.3,4.1.94l1.48-2.55c-1.66-.8-3.79-1.3-5.39-1.2-3.76.24-6.45,2.73-6.42,6.06.02,2.32,1.4,3.59,3.52,4.17l1.53.44c1.48.44,2.67.95,2.69,2.22.01,1.6-1.32,2.78-3.33,2.9-1.65.11-3.74-.43-5.27-1.37l-1.52,2.74c1.96,1.1,4.36,1.67,6.36,1.54,4.21-.27,6.85-2.89,6.82-6.49-.02-2.42-1.76-3.62-4.2-4.31l-1.53-.41c-1.22-.35-2.09-.91-2.1-2.02-.01-1.47,1.3-2.54,3.28-2.66Z"/>
      <polygon class="cls-1" points="267.86 222.53 278.04 221.88 278.72 219.04 271.14 219.52 271.8 214.77 278.5 214.33 278.89 211.67 272.19 212.1 272.85 207.24 280.16 206.77 280.57 203.94 270.39 204.6 267.86 222.53"/>
      <polygon class="cls-1" points="293.03 206.02 297.82 205.71 295.7 220.74 298.57 220.56 300.69 205.53 305.1 205.24 305.84 202.32 293.46 203.11 293.03 206.02"/>
      <path class="cls-1" d="M317.31,201.21c-5.58.36-9.73,5.1-9.67,11.44.04,4.61,2.68,7.53,7.02,7.25,5.58-.36,9.73-5.13,9.67-11.44-.04-4.63-2.73-7.52-7.02-7.25ZM315.11,216.91c-2.74.18-4.41-1.77-4.44-4.88-.04-4.29,2.65-7.58,6.23-7.86,2.69-.23,4.33,1.75,4.36,4.86.04,4.37-2.62,7.65-6.15,7.88Z"/>
      <polygon class="cls-1" points="342.76 199.94 339.89 200.13 337.36 218.06 346.93 217.44 347.59 214.6 340.63 215.05 342.76 199.94"/>
      <polygon class="cls-1" points="351.62 217.14 361.79 216.49 362.48 213.65 354.89 214.13 355.56 209.38 362.26 208.95 362.64 206.28 355.94 206.71 356.61 201.85 363.91 201.38 364.32 198.55 354.14 199.21 351.62 217.14"/>
      <path class="cls-1" d="M374.5,197.9l-8.54,18.32,3.1-.2,1.57-3.48,6.95-.45.59,3.35,3.1-.2-3.46-17.55-3.3.21ZM371.74,210.01l3.91-8.72,1.5,8.38-5.4.35Z"/>
      <path class="cls-1" d="M394.81,196.59l-6.62.43-2.53,17.93,6.5-.42c5.48-.35,9.53-4.96,9.47-11.05-.04-4.39-2.63-7.16-6.82-6.89ZM392.63,211.63l-3.71.24,1.72-12.13,3.7-.24c2.64-.17,4.23,1.67,4.26,4.6.04,4.13-2.52,7.3-5.97,7.52Z"/>
      <polygon class="cls-1" points="41.68 229.86 163.31 222.04 163.3 220.81 41.67 228.63 41.68 229.86"/>
      <path class="cls-1" d="M628.79,155.63c-1.31-3.51-3.33-6.55-6.06-9.12l-32.81-30.96,6.88-27.95-7-6.6,7.98-35.44L549.48,0l-76.05,6.17-1.36,7.91c-2.76-2.21-5.88-3.84-9.37-4.86-4.03-1.19-8.16-1.61-12.37-1.27-5.77.47-11.18,2.07-16.22,4.81-5.05,2.74-9.44,6.24-13.17,10.51-3.73,4.27-6.64,9.17-8.73,14.69-2.09,5.53-3.06,11.32-2.91,17.37.03,1.16.11,2.29.25,3.39.14,1.1.33,2.22.58,3.36l-9.49.77-3.87,19.02,6.42,10.49c-1.01,4.05-1.9,7.7-2.65,10.97-.75,3.27-1.55,6.92-2.4,10.95-.85,4.03-1.66,8.06-2.46,12.09-.79,4.03-1.42,7.84-1.89,11.43-.47,3.59-.67,6.55-.62,8.88.11,4.65,1.03,9.18,2.75,13.59,1.72,4.41,4.23,8.11,7.52,11.1l48.29,45.56c2.96,2.91,6.34,4.93,10.15,6.08,3.81,1.15,7.76,1.56,11.87,1.22.71-.06,1.5-.18,2.35-.36,10.4-2.21,18.85-10.73,21.78-21.49.36-1.31.73-2.7,1.13-4.14l13.75,12.97c3.18,3,6.82,5.13,10.91,6.37,4.09,1.24,8.35,1.68,12.79,1.32,6.77-.55,13.57-2.91,20.42-7.08,3.03-1.84,5.96-3.88,8.8-6.1l1.34,1.26c3.07,2.9,6.62,4.94,10.65,6.13,4.03,1.19,8.15,1.61,12.37,1.27,5.66-.46,11.01-2.09,16.06-4.89,5.04-2.8,9.43-6.36,13.16-10.68,3.73-4.32,6.64-9.25,8.73-14.78,2.09-5.53,3.06-11.26,2.92-17.19-.1-3.96-.8-7.69-2.11-11.19ZM456.68,80.77c-1.09,4.99-2.16,9.88-3.2,14.69-.72,3.33-6.26,30.02-9.6,46.1-1.88,9.04-8.72,16.44-17.35,18.21-.51.11-.99.18-1.44.22-5.88.49-10.6-1.36-14.16-5.55-3.56-4.19-4.99-10.1-4.31-17.74l9.43-46.77c.4-1.78.55-3.25.47-4.41-.09-1.16-.39-2.12-.91-2.9-.52-.77-1.29-1.41-2.3-1.9-1.01-.5-2.25-.92-3.7-1.26l1.62-8.18,48.42-4.05c-.89,4.04-1.89,8.55-2.98,13.54ZM464.99,37.65c-1.59,6.57-4.67,12.03-9.23,16.38-4.56,4.36-9.9,6.8-16.02,7.31-6.22.52-10.79-1.06-13.69-4.74-2.9-3.68-3.66-8.85-2.28-15.5,1.48-6.77,4.53-12.31,9.15-16.62,4.61-4.31,10.09-6.73,16.41-7.26,6.22-.52,10.79,1.09,13.69,4.82,2.91,3.74,3.56,8.94,1.97,15.61ZM537,129.53c-3.69,6.2-8.03,12.1-13.03,17.68-5,5.58-10.45,10.34-16.37,14.28-5.92,3.94-11.8,6.16-17.64,6.66-6.77.58-12.15-1.36-16.14-5.81-3.99-4.45-5.62-10.69-4.91-18.72.09-.99.49-3.38,1.2-7.19.71-3.8,1.64-8.45,2.77-13.95,1.13-5.5,2.42-11.65,3.87-18.46,1.45-6.81,2.95-13.78,4.51-20.91l-14.53,1.24,4.41-18.05,14-1.19,5.27-24.93c.83-3.63.71-6.16-.39-7.61-1.09-1.44-3.23-2.52-6.41-3.23l2.94-10.61,50.98-4.34-10.87,46.99,13.65-1.16-4.41,18.23-13.13,1.12c-1.14,5.25-2.23,10.29-3.27,15.1-1.04,4.81-1.97,9.22-2.79,13.21-.83,4-1.49,7.4-2,10.2-.51,2.8-.81,4.76-.89,5.87-.18,1.86-.1,3.72.24,5.59.34,1.87,1.28,2.74,2.8,2.61,1.17-.1,2.61-.87,4.32-2.3,1.72-1.43,3.42-3.21,5.12-5.31,1.7-2.11,3.24-4.39,4.64-6.84,1.39-2.45,2.42-4.68,3.06-6.7l10.41,1.87c-1.27,4.89-3.75,10.44-7.44,16.65ZM586.33,141.43c-1.46,6.37-4.44,11.66-8.93,15.89-4.49,4.23-9.71,6.59-15.66,7.07-5.95.48-10.33-1.07-13.14-4.65-2.81-3.58-3.59-8.6-2.33-15.06,1.45-6.58,4.46-11.96,9-16.14,4.54-4.18,9.89-6.52,16.04-7.02,5.95-.48,10.33,1.1,13.14,4.73,2.81,3.64,3.44,8.69,1.88,15.18Z"/>
    </g>
  </g>
</svg>